<?xml version="1.0" encoding="utf-8"?>
<!-- Generator: Adobe Illustrator 25.3.1, SVG Export Plug-In . SVG Version: 6.00 Build 0)  -->
<svg version="1.1"
	 id="Cubist" xmlns:inkscape="http://www.inkscape.org/namespaces/inkscape" xmlns:rdf="http://www.w3.org/1999/02/22-rdf-syntax-ns#" xmlns:sodipodi="http://sodipodi.sourceforge.net/DTD/sodipodi-0.dtd" xmlns:svg="http://www.w3.org/2000/svg"
	 xmlns="http://www.w3.org/2000/svg" xmlns:xlink="http://www.w3.org/1999/xlink" x="0px" y="0px" viewBox="0 0 610 150"
	 style="enable-background:new 0 0 610 150;" xml:space="preserve">
<style type="text/css">
	.st0{fill:#5A5A5C;}
	.st1{fill:#04609E;}
	.st2{fill:#044D82;}
	.st3{fill:#044C82;}
	.st4{fill:#048BD1;}
	.st5{fill:#034C82;}
	.st6{fill:#038BD1;}
	.st7{fill:#03609E;}
	.st8{fill:#04AFEF;}
	.st9{fill:#03AFEF;}
	.st10{fill:#027BB5;}
	.st11{fill:#029CD4;}
	.st12{fill:#432C75;}
	.st13{fill:#ACD9EE;}
	.st14{fill:#939598;enable-background:new    ;}
</style>
<sodipodi:namedview  bordercolor="#666666" borderopacity="1.0" fit-margin-bottom="20" fit-margin-left="350" fit-margin-right="350" fit-margin-top="20" id="namedview17" inkscape:current-layer="Cubist" inkscape:cx="640.63932" inkscape:cy="779.58796" inkscape:pagecheckerboard="0" inkscape:pageopacity="0.0" inkscape:pageshadow="2" inkscape:window-height="884" inkscape:window-maximized="0" inkscape:window-width="1606" inkscape:window-x="153" inkscape:window-y="25" inkscape:zoom="0.40662506" lock-margins="false" pagecolor="#ffffff" showgrid="false">
	</sodipodi:namedview>
<g>
	<g id="Text">
		<path class="st0" d="M249.8,84.7c0.1,0.1,0.2,0.1,0.4,0.1h7.1c0.3,0,0.6,0,1-0.1c0.8-0.1,1.6-0.7,1.9-1.4c0.3-0.7,0.5-1.4,0.6-2.1
			c0-0.2,0-0.4,0.2-0.5c0.3-0.1,0.7-0.1,1,0c0.1,0,0.1,0.1,0.1,0.2c0,0.1,0,0.3,0,0.4c-0.1,2-0.2,4.1-0.3,6.1
			c-0.1,0.9,0.1,0.8-0.8,0.8c-4.4,0-8.9,0-13.3,0c-0.8,0-0.7,0-0.7-0.7c0-0.5,0.1-1.1,0.3-1.6c1.6-3.5,3.9-6.4,6.5-9.2
			c0.8-0.8,1.7-1.7,2.4-2.6c0.9-1,1.5-2.2,1.7-3.5c0.1-1.1,0-2.1-0.4-3.1c-0.5-1.4-1.6-2.1-3.1-2.2c-1.3-0.1-2.6,0.3-3.7,1.1
			c-0.5,0.4-0.9,0.9-1,1.5c-0.1,0.5,0,0.7,0.5,0.7c2-0.1,2.7,2.1,2.1,3.5c-0.6,1.5-2.5,1.9-3.8,0.8c-0.7-0.6-1.1-1.4-1.1-2.2
			c-0.2-2.3,0.7-4.2,2.4-5.6s3.9-1.9,6.1-1.6c0.8,0.1,1.7,0.3,2.4,0.7c4.2,1.9,4.3,6.6,2.7,9.1c-0.7,0.9-1.4,1.8-2.3,2.5
			c-1,0.8-2,1.6-3,2.3c-1.8,1.3-3.4,2.7-4.7,4.5C250.6,83.3,250.2,84,249.8,84.7z"/>
		<path class="st0" d="M199.6,75.3c0.2-0.2,0.3-0.4,0.4-0.6c0.5-1.1,1.3-2.1,2.2-2.9c1.5-1.2,3.2-1.5,5-1.1c1.3,0.3,2.3,1.2,2.7,2.4
			c0.4,1,0.5,2,0.5,3c0,2.7,0,5.5,0,8.2c0,0.3,0,0.7,0.1,1c0.1,0.7,0.4,0.9,1.1,1.1c0.1,0,0.2,0,0.3,0c0.8,0.1,0.8,0.1,0.8,0.8
			c0,1.1,0.1,0.9-0.9,0.9c-2.2,0-4.5,0-6.7,0c-0.6,0-0.6,0-0.6-0.6c0-0.3-0.1-0.8,0.1-1c0.2-0.3,0.7-0.1,1-0.1
			c0.2,0,0.4-0.1,0.6-0.1c0.4-0.1,0.8-0.4,0.8-0.8c0-0.3,0.1-0.6,0.1-0.9c0-2.8,0-5.5,0-8.3c0-0.5,0-1-0.2-1.6
			c-0.4-1.6-1.7-2.3-3.3-1.8c-0.6,0.2-1.1,0.6-1.5,1.1c-1,1.1-1.7,2.5-2,3.9c-0.2,0.8-0.3,1.5-0.3,2.3c0,1.4,0,2.8,0,4.2
			c0,0.3,0,0.6,0.1,0.8c0.1,0.7,0.4,1,1.1,1.1c0.4,0,0.7,0.1,1.1,0c0.2,0,0.3,0.1,0.3,0.3c0,0,0,0,0,0.1c0.1,1.3,0.1,1.3-1.2,1.3
			h-6.6c-0.5,0-0.5,0-0.5-0.5c0,0,0,0,0-0.1c0-0.3-0.1-0.8,0.1-1c0.2-0.3,0.6-0.1,0.9-0.1c1-0.1,1.3-0.4,1.4-1.4c0-0.2,0-0.5,0-0.7
			c0-3.2,0-6.5,0-9.7c0-0.3,0-0.7,0-1c-0.1-0.7-0.4-1-1-1.1c-0.3,0-0.7,0-1,0c-0.2,0-0.4-0.1-0.4-0.3c0-0.3,0-0.7,0-1
			c0-0.3,0.1-0.4,0.4-0.4c0.7-0.1,1.5-0.1,2.2-0.2c0.9-0.1,1.8-0.1,2.7-0.2c0.5,0,0.5,0,0.5,0.4c-0.1,1.3-0.2,2.6-0.3,3.8
			C199.5,75,199.5,75.2,199.6,75.3z"/>
		<path class="st0" d="M178.7,72.7c-1.4-1.6-3.5-2.5-5.6-2.4c-2,0-3.7,0.8-5.1,2.2c-3.6,3.5-3.9,9.8-0.6,13.6
			c3,3.5,7.9,3.6,11.1,0.4C182.1,82.9,182.2,76.4,178.7,72.7z M176.7,84.2c-0.2,0.7-0.5,1.3-1,1.8c-1.1,1.4-3.1,1.6-4.5,0.5
			c-0.1-0.1-0.2-0.2-0.3-0.3c-0.9-0.9-1.3-2-1.6-3.3c-0.5-2.4-0.5-4.9,0.1-7.3c0.2-0.7,0.4-1.4,0.8-2c1.4-2.2,4.2-2.3,5.7-0.2
			c0.6,0.9,1,2,1.2,3.1c0.2,1,0.3,2,0.3,3.1C177.4,81.2,177.2,82.7,176.7,84.2z"/>
		<path class="st0" d="M243.8,67.5h-7c-0.5,0-1,0-1.6,0.1c-1.1,0.2-1.9,0.9-2.4,1.9c-0.4,0.8-0.6,1.7-0.8,2.6c0,0.2,0,0.5-0.2,0.6
			c-0.3,0.1-0.6,0.1-1,0c-0.2,0-0.1-0.2-0.1-0.4c0-0.7,0.1-1.4,0.2-2.1c0.2-1.9,0.3-3.7,0.5-5.6c0-0.5,0-0.5,0.6-0.5H246
			c0.5,0,0.5,0,0.5,0.5c0.1,1.1-0.2,2.2-0.9,3.1c-1.6,2.1-2.9,4.3-4,6.7c-1.2,2.4-1.8,5-1.7,7.7c0,0.8,0.1,1.7,0.2,2.5
			c0.1,0.7,0.1,1.3,0.1,2c0,0.4-0.1,0.7-0.2,1.1c-0.2,0.6-0.8,1.1-1.5,1.1c-0.7,0.1-1.4-0.2-1.7-0.8c-0.4-0.6-0.6-1.2-0.6-1.9
			c-0.1-1.9,0.2-3.7,0.7-5.5c0.9-2.8,2.2-5.5,3.7-8c0.9-1.5,1.8-3,2.8-4.5C243.5,67.9,243.6,67.7,243.8,67.5z"/>
		<path class="st0" d="M215.9,78.7c0-1.8,0-3.7,0-5.5c0-0.5,0-0.5-0.5-0.5c-0.5,0-1.1,0-1.6,0c-0.5,0-0.5,0-0.6-0.6c0,0,0-0.1,0-0.1
			c0-0.5-0.1-0.6,0.6-0.8c1.4-0.4,2.5-1.4,3-2.8c0.4-1.1,0.7-2.2,0.8-3.3c0-0.3,0.1-0.7,0.1-1c0-0.2,0.1-0.3,0.3-0.3
			c1.3-0.1,1.3-0.1,1.3,1.2c0,1.7,0,3.4,0,5.2c0,0.8-0.1,0.8,0.8,0.8c1.2,0,2.5,0,3.7,0c0.5,0,0.5,0,0.5,0.5c0,0.3,0,0.6,0,0.8
			c0,0.4-0.1,0.4-0.5,0.4c-1.3,0-2.7,0-4,0c-0.6,0-0.6,0-0.6,0.6c0,3.3,0,6.5,0,9.8c0,0.6,0,1.1,0.2,1.7c0.2,0.9,0.7,1.5,1.5,1.6
			c0.9,0.2,1.8-0.3,2.2-1.1c0.5-0.8,0.6-1.7,0.7-2.6c0.1-0.7,0.1-0.7,0.8-0.7c0.8,0,0.9-0.2,0.8,0.9c0,1-0.3,2-0.6,2.9
			c-1.1,2.7-4,3.8-6.6,2.5c-1.3-0.6-1.9-1.8-2.1-3.1c-0.1-0.5-0.1-1-0.1-1.6C215.9,82,215.9,80.3,215.9,78.7z"/>
		<path class="st0" d="M189.1,78.1c0,2.2,0,4.4,0,6.5c0,0.3,0,0.6,0,0.8c0.1,0.6,0.4,0.9,1,1c0.2,0,0.4,0,0.6,0c0.5,0,0.5,0,0.5,0.6
			v0.6c0,0.5,0,0.5-0.6,0.5h-5.8c-0.1,0-0.3,0-0.4,0c-0.4,0-0.9,0.2-1.1-0.1c-0.2-0.4-0.1-0.9-0.1-1.4c0-0.2,0.1-0.2,0.3-0.2
			c0.3,0,0.7,0,1-0.1c0.5,0,0.9-0.4,1-1c0-0.3,0.1-0.6,0.1-0.8c0-3.4,0-6.8,0-10.2c0-0.3,0-0.5-0.1-0.8c-0.1-0.7-0.4-1-1.1-1
			c-0.4,0-0.7,0-1.1,0c-0.3,0-0.4-0.1-0.3-0.3c0-0.2,0-0.4,0-0.7c0-0.7,0-0.7,0.7-0.7l4.8-0.3c0.5,0,0.5,0,0.5,0.5
			c0,2.2,0,4.3,0,6.5L189.1,78.1z"/>
		<path class="st0" d="M184.3,64.7c0-1.4,1.2-2.6,2.6-2.6c1.4,0,2.6,1.2,2.6,2.6c0,1.4-1.2,2.6-2.6,2.6
			C185.4,67.3,184.3,66.2,184.3,64.7z"/>
		<path class="st0" d="M162.1,64.3c-0.5-0.3-1-0.6-1.6-0.8c-1.7-0.6-3.6-0.9-5.4-0.9c-1.6,0-3.2,0-4.8,0h-5.2c-1.1,0-1.1,0-1.1,1.1
			c0,0.6,0,0.6,0.6,0.6c0.6,0,1.2,0,1.8,0.1c0.7,0.1,1.1,0.5,1.2,1.2c0,0.2,0,0.4,0,0.6c0,6.2,0,12.3,0,18.5c0,0.3,0,0.5-0.1,0.8
			c-0.1,0.5-0.5,0.9-1,1c-0.4,0.1-0.9,0.1-1.4,0.1c-1.3,0-1.3,0-1.3,1.3c0,0,0,0,0,0.1c0,0.2,0.1,0.3,0.3,0.3c0.1,0,0.3,0,0.4,0
			h10.8c0.1,0,0.2-0.1,0.2-0.2c0-0.5,0.2-1-0.1-1.4c-0.2-0.3-0.7-0.1-1.1-0.1c-0.4,0-0.9,0-1.3,0c-0.3,0-0.6,0-0.8-0.1
			c-0.5-0.1-0.9-0.5-0.9-1c0-0.2-0.1-0.4-0.1-0.6c0-2.4,0-4.8,0-7.2c0-0.4,0.1-0.4,0.5-0.4c0.9,0,1.8,0,2.7,0c1.5,0,3-0.2,4.5-0.6
			c1.5-0.4,2.9-1.1,4-2.2C166,71.8,166,66.6,162.1,64.3z M160.6,71.8c-0.5,2.1-1.9,3.1-3.9,3.5c-0.8,0.1-1.7,0.2-2.5,0.2
			c-0.7,0-1.5,0-2.2,0c-0.5,0-0.5,0-0.5-0.5c0-1.5,0-3,0-4.4c0-1.4,0-2.7,0-4.1c0-1.5,0.4-2,1.9-2c1.2-0.1,2.4,0,3.6,0.2
			c2.3,0.5,3.5,1.7,3.8,4.1C160.9,69.7,160.9,70.7,160.6,71.8L160.6,71.8z"/>
	</g>
	<g id="Dots">
		<path class="st1" d="M104.6,94.9c0,1.5-1.2,2.7-2.7,2.7c-1.5,0-2.7-1.2-2.7-2.7c0-1.5,1.2-2.7,2.7-2.7
			C103.4,92.2,104.6,93.4,104.6,94.9C104.6,94.9,104.6,94.9,104.6,94.9z"/>
		<path class="st1" d="M62.3,42.4c0-1.5,1.3-2.7,2.8-2.7c1.5,0,2.7,1.3,2.7,2.8c0,1.5-1.2,2.7-2.7,2.7C63.5,45.2,62.3,44,62.3,42.4
			C62.3,42.5,62.3,42.4,62.3,42.4z"/>
		<path class="st2" d="M43.5,97.7c-1.5,0-2.7-1.2-2.7-2.7s1.2-2.7,2.7-2.7l0,0c1.5,0,2.7,1.2,2.7,2.7S45.1,97.7,43.5,97.7z"/>
		<path class="st3" d="M57.3,103.6c-1.5,0-2.7-1.2-2.7-2.8c0-1.5,1.2-2.7,2.8-2.7c1.5,0,2.7,1.2,2.7,2.7
			C60,102.3,58.8,103.6,57.3,103.6z"/>
		<path class="st1" d="M67.7,108.6c0,1.5-1.3,2.7-2.8,2.7c-1.5,0-2.7-1.3-2.7-2.8c0-1.5,1.3-2.7,2.8-2.7
			C66.5,105.8,67.7,107,67.7,108.6z"/>
		<path class="st3" d="M40.8,63.9c0-1.5,1.2-2.7,2.7-2.7c0,0,0,0,0.1,0c1.5,0,2.8,1.2,2.8,2.7c0,1.5-1.2,2.8-2.7,2.8
			S40.8,65.5,40.8,63.9C40.8,63.9,40.8,63.9,40.8,63.9z"/>
		<path class="st4" d="M62.3,116.3c0-1.5,1.3-2.7,2.8-2.7c1.5,0,2.7,1.3,2.7,2.8s-1.3,2.7-2.8,2.7C63.4,119,62.2,117.8,62.3,116.3z"
			/>
		<path class="st2" d="M43.5,74.4c-1.5,0-2.7-1.2-2.7-2.8c0-1.5,1.2-2.7,2.8-2.7c1.5,0,2.7,1.2,2.7,2.8
			C46.3,73.2,45.1,74.4,43.5,74.4z"/>
		<path class="st1" d="M101.9,74.4c-1.5,0-2.8-1.2-2.8-2.7c0-1.5,1.2-2.8,2.7-2.8c1.5,0,2.8,1.2,2.8,2.7c0,0,0,0,0,0
			C104.7,73.2,103.5,74.4,101.9,74.4C102,74.4,101.9,74.4,101.9,74.4z"/>
		<path class="st1" d="M57.2,111.3c-1.5,0-2.7-1.2-2.7-2.8c0-1.5,1.2-2.8,2.7-2.8c1.5,0,2.8,1.2,2.8,2.7c0,0.1,0,0.1,0,0.2
			C60,110.1,58.7,111.3,57.2,111.3z"/>
		<path class="st5" d="M40.8,79.4c0-1.5,1.2-2.7,2.7-2.7c1.5,0,2.7,1.3,2.7,2.8c0,1.5-1.3,2.7-2.8,2.7C42,82.2,40.8,80.9,40.8,79.4
			C40.8,79.4,40.8,79.4,40.8,79.4z"/>
		<path class="st2" d="M96.9,79.4c0,1.5-1.2,2.7-2.8,2.7c-1.5,0-2.7-1.2-2.7-2.8c0-1.5,1.2-2.7,2.8-2.7c0,0,0,0,0,0
			C95.7,76.7,96.9,77.9,96.9,79.4z"/>
		<path class="st1" d="M35.8,97.7c-1.5,0-2.7-1.2-2.7-2.8c0-1.5,1.2-2.7,2.8-2.7c1.5,0,2.7,1.2,2.7,2.8c0,0,0,0,0,0
			C38.5,96.5,37.3,97.7,35.8,97.7C35.8,97.7,35.8,97.7,35.8,97.7z"/>
		<path class="st4" d="M109.7,97.7c-1.5,0-2.7-1.2-2.7-2.7c0-1.5,1.2-2.7,2.7-2.7c0,0,0,0,0,0c1.5,0,2.7,1.2,2.7,2.7
			C112.4,96.4,111.2,97.7,109.7,97.7C109.7,97.7,109.7,97.7,109.7,97.7z"/>
		<path class="st5" d="M40.8,56.2c0-1.5,1.2-2.7,2.7-2.8c0,0,0,0,0,0c1.5,0,2.8,1.2,2.8,2.7c0,1.5-1.2,2.8-2.7,2.8l0,0
			C42,58.9,40.8,57.7,40.8,56.2C40.8,56.2,40.8,56.2,40.8,56.2z"/>
		<path class="st1" d="M85.5,42.4c0-1.5,1.3-2.7,2.8-2.7c1.5,0,2.7,1.3,2.7,2.8c0,1.5-1.3,2.7-2.8,2.7c0,0,0,0,0,0
			C86.7,45.2,85.5,43.9,85.5,42.4z"/>
		<path class="st3" d="M57.2,53c-1.5,0-2.7-1.2-2.7-2.8c0-1.5,1.3-2.7,2.8-2.7c1.5,0,2.7,1.3,2.7,2.8C60,51.7,58.7,53,57.2,53z"/>
		<path class="st3" d="M80.5,103.6c-1.5,0-2.7-1.2-2.7-2.7c0-1.5,1.2-2.7,2.7-2.7c1.5,0,2.7,1.2,2.7,2.7c0,0,0,0,0,0
			C83.2,102.3,82,103.6,80.5,103.6z"/>
		<path class="st3" d="M40.8,87.2c0-1.5,1.2-2.7,2.7-2.7c0,0,0,0,0.1,0c1.5,0,2.8,1.2,2.8,2.7c0,0,0,0,0,0.1c0,1.5-1.3,2.7-2.8,2.7
			C42,89.9,40.8,88.7,40.8,87.2C40.8,87.2,40.8,87.2,40.8,87.2z"/>
		<path class="st1" d="M52.2,42.5c0,1.5-1.2,2.7-2.7,2.7c0,0,0,0,0,0c-1.5,0-2.8-1.2-2.8-2.7c0-1.5,1.2-2.8,2.7-2.8
			C51,39.7,52.2,40.9,52.2,42.5C52.2,42.4,52.2,42.5,52.2,42.5z"/>
		<path class="st5" d="M96.9,56.2c0,1.5-1.3,2.7-2.8,2.7c-1.5,0-2.7-1.3-2.7-2.8c0-1.5,1.3-2.7,2.8-2.7c0,0,0,0,0,0
			C95.7,53.4,96.9,54.7,96.9,56.2C96.9,56.2,96.9,56.2,96.9,56.2z"/>
		<path class="st6" d="M112.4,79.5c0,1.5-1.3,2.7-2.8,2.7c-1.5,0-2.7-1.3-2.7-2.8c0-1.5,1.3-2.7,2.8-2.7
			C111.2,76.7,112.4,77.9,112.4,79.5z"/>
		<path class="st6" d="M57.3,113.6c1.5,0,2.7,1.3,2.7,2.8c0,1.5-1.3,2.7-2.8,2.7c-1.5,0-2.7-1.3-2.7-2.8l0,0
			C54.5,114.8,55.8,113.5,57.3,113.6C57.3,113.6,57.3,113.6,57.3,113.6z"/>
		<path class="st7" d="M83.2,42.4c0,1.5-1.2,2.7-2.8,2.7c-1.5,0-2.7-1.2-2.7-2.8c0-1.5,1.2-2.7,2.8-2.7c0,0,0,0,0,0
			C82,39.7,83.3,40.9,83.2,42.4C83.2,42.4,83.2,42.4,83.2,42.4z"/>
		<path class="st2" d="M75.5,50.2c0,1.5-1.2,2.8-2.7,2.8c-1.5,0-2.8-1.2-2.8-2.7c0-1.5,1.2-2.8,2.7-2.8c0,0,0,0,0,0
			C74.2,47.5,75.5,48.6,75.5,50.2C75.5,50.2,75.5,50.2,75.5,50.2z"/>
		<path class="st1" d="M88.2,111.3c-1.5,0-2.7-1.2-2.7-2.7c0,0,0,0,0,0c0-1.5,1.2-2.7,2.8-2.7c1.5,0,2.7,1.2,2.7,2.8
			S89.8,111.3,88.2,111.3C88.2,111.3,88.2,111.3,88.2,111.3z"/>
		<path class="st4" d="M30.8,79.4c0,1.5-1.2,2.7-2.7,2.7s-2.7-1.2-2.7-2.7c0-1.5,1.2-2.7,2.7-2.7C29.6,76.7,30.8,77.9,30.8,79.4z"/>
		<path class="st3" d="M94.2,84.4c1.5,0,2.7,1.2,2.7,2.7c0,0,0,0,0,0c0,1.5-1.1,2.8-2.7,2.8c-1.5,0-2.8-1.1-2.8-2.7
			c0-0.1,0-0.1,0-0.2C91.4,85.7,92.6,84.4,94.2,84.4C94.1,84.4,94.2,84.4,94.2,84.4z"/>
		<path class="st7" d="M104.6,79.4c0,1.5-1.2,2.7-2.7,2.7c0,0,0,0,0,0c-1.5,0-2.8-1.2-2.8-2.7c0-1.5,1.2-2.8,2.7-2.8
			C103.4,76.7,104.6,77.9,104.6,79.4C104.6,79.4,104.6,79.4,104.6,79.4z"/>
		<path class="st1" d="M35.8,61.2c1.5,0,2.7,1.2,2.7,2.7c0,0,0,0,0,0c0,1.5-1.2,2.8-2.7,2.8c0,0,0,0,0,0c-1.5,0-2.8-1.2-2.8-2.7
			C33,62.4,34.3,61.2,35.8,61.2L35.8,61.2z"/>
		<path class="st1" d="M75.5,42.4c0,1.5-1.2,2.7-2.7,2.8c0,0,0,0,0,0c-1.5,0-2.8-1.2-2.8-2.7c0-1.5,1.2-2.8,2.7-2.8
			C74.2,39.7,75.5,40.9,75.5,42.4C75.5,42.4,75.5,42.4,75.5,42.4z"/>
		<path class="st1" d="M38.5,71.7c0,1.5-1.2,2.7-2.7,2.7c0,0,0,0,0,0c-1.5,0-2.7-1.2-2.7-2.7s1.2-2.7,2.7-2.7
			C37.3,68.9,38.5,70.2,38.5,71.7C38.5,71.7,38.5,71.7,38.5,71.7z"/>
		<path class="st8" d="M20.3,74.4c-1.5,0-2.7-1.3-2.7-2.8c0-1.5,1.3-2.7,2.8-2.7l0,0c1.5,0,2.7,1.3,2.7,2.8
			C23,73.2,21.8,74.4,20.3,74.4L20.3,74.4z"/>
		<path class="st1" d="M101.9,84.4c1.5,0,2.7,1.2,2.7,2.7c0,0,0,0,0,0.1c0,1.5-1.2,2.7-2.7,2.7c-1.5,0-2.7-1.2-2.7-2.7
			C99.1,85.7,100.3,84.5,101.9,84.4C101.9,84.4,101.9,84.4,101.9,84.4z"/>
		<path class="st3" d="M88.2,98.1c1.5,0,2.7,1.2,2.7,2.8c0,1.5-1.2,2.7-2.8,2.7l0,0c-1.5,0-2.7-1.2-2.7-2.8
			C85.5,99.3,86.7,98,88.2,98.1z"/>
		<path class="st4" d="M109.7,74.4c-1.5,0-2.7-1.2-2.7-2.7c0-1.5,1.2-2.7,2.7-2.7c1.5,0,2.7,1.2,2.7,2.7
			C112.4,73.2,111.2,74.4,109.7,74.4z"/>
		<path class="st4" d="M80.5,37.4c-1.5,0-2.7-1.2-2.7-2.8c0-1.5,1.2-2.7,2.8-2.7s2.7,1.2,2.7,2.8c0,0,0,0,0,0
			C83.3,36.2,82,37.4,80.5,37.4C80.5,37.4,80.5,37.4,80.5,37.4z"/>
		<path class="st5" d="M80.5,47.5c1.5,0,2.7,1.2,2.7,2.7c0,0,0,0,0,0c0,1.5-1.2,2.7-2.8,2.7c-1.5,0-2.7-1.2-2.7-2.8
			C77.8,48.7,79,47.5,80.5,47.5C80.5,47.5,80.5,47.5,80.5,47.5z"/>
		<path class="st4" d="M30.8,56.2c0,1.5-1.2,2.7-2.8,2.7c-1.5,0-2.7-1.2-2.7-2.8c0-1.5,1.2-2.7,2.8-2.7c0,0,0,0,0,0
			C29.6,53.4,30.8,54.7,30.8,56.2z"/>
		<path class="st7" d="M104.6,56.3c0,1.5-1.3,2.7-2.8,2.7c-1.5,0-2.7-1.3-2.7-2.8c0-1.5,1.3-2.7,2.8-2.7
			C103.4,53.4,104.7,54.7,104.6,56.3C104.7,56.2,104.7,56.2,104.6,56.3z"/>
		<path class="st8" d="M12.5,74.4c-1.5,0-2.7-1.3-2.7-2.8c0-1.5,1.3-2.7,2.8-2.7c1.5,0,2.7,1.3,2.7,2.8C15.3,73.2,14,74.4,12.5,74.4
			z"/>
		<path class="st3" d="M94.2,61.2c1.5,0,2.7,1.2,2.7,2.7c0,0,0,0,0,0c0,1.5-1.2,2.8-2.7,2.8c-1.5,0-2.8-1.2-2.8-2.7
			C91.4,62.4,92.6,61.2,94.2,61.2C94.2,61.2,94.2,61.2,94.2,61.2z"/>
		<path class="st9" d="M127.9,79.4c0,1.5-1.2,2.8-2.7,2.8c-1.5,0-2.8-1.2-2.8-2.7c0-1.5,1.2-2.8,2.7-2.8
			C126.7,76.7,127.9,77.9,127.9,79.4L127.9,79.4z"/>
		<path class="st5" d="M75.5,100.8c0,1.5-1.2,2.8-2.7,2.8c-1.5,0-2.8-1.2-2.8-2.7c0-1.5,1.2-2.8,2.7-2.8c0,0,0,0,0,0
			C74.2,98,75.5,99.2,75.5,100.8C75.5,100.7,75.5,100.8,75.5,100.8z"/>
		<path class="st3" d="M88.3,47.5c1.5,0,2.7,1.2,2.7,2.7c0,0,0,0,0,0c0,1.5-1.2,2.8-2.7,2.8s-2.8-1.2-2.8-2.7c0-0.1,0-0.1,0-0.2
			C85.5,48.7,86.7,47.5,88.3,47.5C88.2,47.5,88.3,47.5,88.3,47.5z"/>
		<path class="st1" d="M38.5,79.4c0,1.5-1.2,2.7-2.7,2.8c0,0,0,0,0,0c-1.5,0-2.8-1.2-2.8-2.7c0-1.5,1.2-2.8,2.7-2.8
			C37.2,76.6,38.5,77.8,38.5,79.4C38.5,79.4,38.5,79.4,38.5,79.4z"/>
		<path class="st3" d="M62.3,50.2c0-1.5,1.2-2.7,2.7-2.7c0,0,0.1,0,0.1,0c1.5,0,2.7,1.2,2.7,2.7c0,0,0,0,0,0c0,1.5-1.2,2.7-2.8,2.7
			C63.5,52.9,62.3,51.7,62.3,50.2L62.3,50.2z"/>
		<path class="st2" d="M52.2,50.2c0,1.5-1.2,2.7-2.7,2.7c0,0,0,0,0,0c-1.5,0-2.7-1.2-2.7-2.8c0-1.5,1.2-2.7,2.8-2.7c0,0,0,0,0,0
			C51,47.5,52.2,48.7,52.2,50.2C52.2,50.2,52.2,50.2,52.2,50.2z"/>
		<path class="st8" d="M120.2,79.5c0,1.5-1.3,2.7-2.8,2.7s-2.7-1.3-2.7-2.8c0-1.5,1.2-2.7,2.7-2.7C118.9,76.7,120.2,77.9,120.2,79.5
			C120.2,79.4,120.2,79.4,120.2,79.5z"/>
		<path class="st6" d="M25.3,63.9c0-1.5,1.3-2.7,2.8-2.7c1.5,0,2.7,1.3,2.7,2.8l0,0c0,1.5-1.3,2.7-2.8,2.7
			C26.5,66.7,25.3,65.4,25.3,63.9z"/>
		<path class="st8" d="M85.5,26.9c0-1.5,1.2-2.7,2.7-2.7s2.7,1.2,2.7,2.7c0,1.5-1.2,2.7-2.7,2.7C86.7,29.7,85.5,28.5,85.5,26.9
			C85.5,26.9,85.5,26.9,85.5,26.9L85.5,26.9z"/>
		<path class="st6" d="M109.7,84.4c1.5,0,2.7,1.2,2.7,2.7c0,1.5-1.3,2.8-2.8,2.7c-1.5,0-2.7-1.3-2.7-2.8c0-1.5,1.2-2.7,2.7-2.7
			C109.6,84.4,109.7,84.4,109.7,84.4z"/>
		<path class="st5" d="M49.5,103.6c-1.5,0-2.7-1.2-2.7-2.7c0-1.5,1.2-2.7,2.7-2.7c1.5,0,2.7,1.2,2.7,2.7c0,0,0,0,0,0
			C52.2,102.3,51,103.6,49.5,103.6C49.5,103.6,49.5,103.6,49.5,103.6z"/>
		<path class="st3" d="M65,103.6c-1.5,0-2.7-1.2-2.8-2.7c0-1.5,1.2-2.7,2.7-2.8c1.5,0,2.7,1.2,2.8,2.7c0,0,0,0,0,0
			C67.8,102.3,66.5,103.5,65,103.6C65,103.6,65,103.6,65,103.6z"/>
		<path class="st1" d="M72.7,111.3c-1.5,0-2.7-1.2-2.7-2.8c0-1.5,1.2-2.8,2.7-2.8c1.5,0,2.8,1.2,2.8,2.7c0,0.1,0,0.1,0,0.2
			C75.5,110.1,74.2,111.3,72.7,111.3C72.7,111.3,72.7,111.3,72.7,111.3z"/>
		<path class="st4" d="M52.2,116.3c0,1.5-1.3,2.7-2.8,2.7c-1.5,0-2.7-1.3-2.7-2.8c0-1.5,1.2-2.7,2.7-2.7c0,0,0.1,0,0.1,0
			C51,113.6,52.2,114.8,52.2,116.3C52.2,116.3,52.2,116.3,52.2,116.3z"/>
		<path class="st8" d="M75.5,26.9c0,1.5-1.2,2.8-2.7,2.8c0,0,0,0,0,0c-1.5,0-2.8-1.2-2.8-2.7c0,0,0,0,0,0c0-1.5,1.2-2.7,2.7-2.7
			C74.2,24.2,75.5,25.4,75.5,26.9C75.5,26.9,75.5,26.9,75.5,26.9z"/>
		<path class="st9" d="M17.5,56.2c0-1.5,1.2-2.7,2.7-2.8c1.5,0,2.8,1.2,2.8,2.7c0,1.5-1.2,2.8-2.7,2.8
			C18.8,58.9,17.6,57.7,17.5,56.2C17.5,56.2,17.5,56.2,17.5,56.2L17.5,56.2z"/>
		<path class="st3" d="M96.9,94.9c0,1.5-1.1,2.8-2.7,2.8c-1.5,0-2.8-1.1-2.8-2.7c0-0.1,0-0.1,0-0.2c0-1.5,1.3-2.7,2.8-2.7
			C95.7,92.3,96.9,93.5,96.9,94.9z"/>
		<path class="st1" d="M52.2,108.6c0,1.5-1.2,2.7-2.7,2.7c0,0,0,0-0.1,0c-1.5,0-2.7-1.2-2.7-2.8c0-1.5,1.2-2.7,2.7-2.8
			C51,105.8,52.2,107,52.2,108.6C52.2,108.6,52.2,108.6,52.2,108.6z"/>
		<path class="st3" d="M94.1,74.4c-1.5,0-2.7-1.3-2.7-2.8c0-1.5,1.3-2.7,2.8-2.7c1.5,0,2.7,1.3,2.7,2.8c0,0,0,0,0,0
			C96.9,73.2,95.7,74.4,94.1,74.4C94.2,74.4,94.1,74.4,94.1,74.4z"/>
		<path class="st4" d="M75.5,116.3c0,1.5-1.2,2.8-2.7,2.8c-1.5,0-2.8-1.2-2.8-2.7c0-1.5,1.2-2.8,2.7-2.8c0,0,0,0,0,0
			C74.2,113.5,75.5,114.7,75.5,116.3C75.5,116.2,75.5,116.3,75.5,116.3z"/>
		<path class="st8" d="M52.2,124.1c0,1.5-1.2,2.7-2.7,2.7c0,0,0,0,0,0c-1.5,0-2.7-1.3-2.7-2.8c0-1.5,1.3-2.7,2.8-2.7
			C51,121.3,52.2,122.5,52.2,124.1C52.2,124,52.2,124.1,52.2,124.1z"/>
		<path class="st8" d="M64.9,134.5c-1.5,0-2.7-1.2-2.7-2.7c0,0,0-0.1,0-0.1c0-1.5,1.3-2.7,2.8-2.7c1.5,0,2.7,1.3,2.7,2.8l0,0
			C67.7,133.4,66.5,134.6,64.9,134.5C65,134.5,64.9,134.5,64.9,134.5z"/>
		<path class="st4" d="M30.8,71.6c0,1.5-1.2,2.8-2.7,2.8c-1.5,0-2.8-1.2-2.8-2.7c0-1.5,1.2-2.8,2.7-2.8c0,0,0,0,0,0
			C29.5,68.9,30.8,70.1,30.8,71.6z"/>
		<path class="st9" d="M75.5,19.2c0,1.5-1.2,2.7-2.7,2.7c0,0,0,0,0,0c-1.5,0-2.8-1.2-2.8-2.7s1.2-2.8,2.7-2.8
			C74.2,16.4,75.5,17.7,75.5,19.2C75.5,19.2,75.5,19.2,75.5,19.2z"/>
		<path class="st7" d="M38.5,56.2c0,1.5-1.2,2.7-2.7,2.7c0,0,0,0,0,0c-1.5,0-2.7-1.2-2.7-2.8c0-1.5,1.2-2.7,2.8-2.7l0,0
			C37.3,53.4,38.5,54.7,38.5,56.2C38.5,56.2,38.5,56.2,38.5,56.2z"/>
		<path class="st4" d="M88.3,37.4c-1.5,0-2.7-1.2-2.7-2.7c0-1.5,1.2-2.7,2.7-2.7l0,0c1.5,0,2.7,1.2,2.7,2.7
			C91,36.2,89.8,37.4,88.3,37.4z"/>
		<path class="st6" d="M65,37.4c-1.5,0-2.8-1.2-2.8-2.7c0-1.5,1.2-2.8,2.7-2.8c1.5,0,2.8,1.2,2.8,2.7C67.8,36.2,66.5,37.4,65,37.4
			L65,37.4z"/>
		<path class="st4" d="M75.5,34.7c0,1.5-1.2,2.7-2.7,2.7c0,0,0,0-0.1,0c-1.5,0-2.7-1.2-2.7-2.8c0-1.5,1.2-2.7,2.8-2.7
			S75.5,33.2,75.5,34.7C75.5,34.7,75.5,34.7,75.5,34.7z"/>
		<path class="st8" d="M65,126.8c-1.5,0-2.7-1.2-2.7-2.7c0,0,0,0,0,0c0-1.5,1.2-2.7,2.8-2.7c1.5,0,2.7,1.2,2.7,2.8
			C67.7,125.6,66.5,126.8,65,126.8C65,126.8,65,126.8,65,126.8z"/>
		<path class="st8" d="M120.2,95c0,1.5-1.3,2.7-2.8,2.7c-1.5,0-2.7-1.3-2.7-2.8c0-1.5,1.3-2.7,2.8-2.7c0,0,0,0,0,0
			C119,92.2,120.2,93.4,120.2,95C120.2,94.9,120.2,95,120.2,95z"/>
	</g>
</g>
<g>
	<polygon class="st10" points="374.7,35.8 402.3,51.6 402.1,19.7 	"/>
	<polygon class="st11" points="374.7,35.8 374.6,67.5 402.3,51.6 	"/>
	<polygon class="st12" points="374.7,99.6 402.3,115.4 402.1,83.5 	"/>
	<polygon class="st10" points="374.7,99.6 374.6,131.3 402.3,115.4 	"/>
	<polygon class="st13" points="346.8,51.9 346.8,83.6 374.4,67.6 	"/>
</g>
<g>
	<path d="M487.9,55v-2.1c-0.5,0.8-1.2,1.4-2.1,1.8c-0.9,0.4-1.7,0.7-2.7,0.7c-1,0-1.8-0.2-2.6-0.6c-0.8-0.4-1.3-1-1.7-1.8
		c-0.3-0.8-0.5-1.8-0.5-3.2v-9.1h3.8v6.6c0,2,0.1,3.3,0.2,3.7c0.1,0.5,0.4,0.8,0.8,1.1c0.4,0.3,0.8,0.4,1.4,0.4
		c0.6,0,1.2-0.2,1.7-0.5c0.5-0.4,0.9-0.8,1.1-1.3c0.2-0.5,0.3-1.8,0.3-3.9v-6h3.8V55H487.9z"/>
	<path d="M495.2,55V35.3h3.8v7.1c1.2-1.3,2.6-2,4.2-2c1.7,0,3.2,0.6,4.3,1.9c1.1,1.3,1.7,3.1,1.7,5.4c0,2.4-0.6,4.3-1.7,5.6
		c-1.2,1.3-2.6,2-4.2,2c-0.8,0-1.6-0.2-2.4-0.6c-0.8-0.4-1.5-1-2.1-1.8V55H495.2z M498.9,47.6c0,1.5,0.2,2.6,0.7,3.3
		c0.7,1,1.5,1.5,2.6,1.5c0.8,0,1.5-0.4,2.1-1.1c0.6-0.7,0.9-1.8,0.9-3.4c0-1.6-0.3-2.8-0.9-3.5c-0.6-0.7-1.4-1.1-2.3-1.1
		c-0.9,0-1.7,0.4-2.3,1.1C499.2,45.1,498.9,46.1,498.9,47.6z"/>
	<path d="M512.2,38.8v-3.5h3.8v3.5H512.2z M512.2,55V40.7h3.8V55H512.2z"/>
	<path d="M518.6,51l3.8-0.6c0.2,0.7,0.5,1.3,1,1.7c0.5,0.4,1.2,0.6,2.1,0.6c1,0,1.7-0.2,2.2-0.5c0.3-0.2,0.5-0.6,0.5-1
		c0-0.3-0.1-0.5-0.3-0.7c-0.2-0.2-0.6-0.3-1.3-0.5c-3.1-0.7-5-1.3-5.8-1.8c-1.1-0.8-1.7-1.8-1.7-3.2c0-1.2,0.5-2.3,1.5-3.1
		c1-0.8,2.5-1.3,4.6-1.3c2,0,3.4,0.3,4.4,1c1,0.6,1.6,1.6,2,2.8l-3.6,0.7c-0.2-0.6-0.4-1-0.9-1.3c-0.4-0.3-1-0.4-1.8-0.4
		c-1,0-1.7,0.1-2.1,0.4c-0.3,0.2-0.4,0.5-0.4,0.8c0,0.3,0.1,0.5,0.4,0.7c0.3,0.3,1.5,0.6,3.5,1.1c2,0.5,3.4,1,4.2,1.7
		c0.8,0.7,1.2,1.6,1.2,2.8c0,1.3-0.5,2.4-1.6,3.4c-1.1,0.9-2.7,1.4-4.9,1.4c-2,0-3.5-0.4-4.6-1.2C519.6,53.4,518.9,52.3,518.6,51z"
		/>
	<path d="M541.8,40.7v3h-2.6v5.8c0,1.2,0,1.8,0.1,2c0.1,0.2,0.2,0.4,0.3,0.5c0.2,0.1,0.4,0.2,0.6,0.2c0.3,0,0.9-0.1,1.5-0.4l0.3,2.9
		c-0.9,0.4-1.9,0.6-3,0.6c-0.7,0-1.3-0.1-1.8-0.3c-0.5-0.2-1-0.5-1.2-0.9c-0.3-0.4-0.4-0.9-0.5-1.5c-0.1-0.4-0.1-1.3-0.1-2.7v-6.2
		h-1.7v-3h1.7v-2.8l3.8-2.2v5.1H541.8z"/>
	<g>
		<path d="M471.2,47.8l3.9,1.2c-0.6,2.2-1.6,3.8-3,4.8c-1.4,1-3.1,1.6-5.3,1.6c-2.6,0-4.8-0.9-6.5-2.7c-1.7-1.8-2.5-4.2-2.5-7.4
			c0-3.3,0.8-5.8,2.5-7.7c1.7-1.8,3.9-2.7,6.7-2.7c2.4,0,4.4,0.7,5.9,2.1c0.9,0.8,1.6,2.1,2,3.6l-4,0.9c-0.2-1-0.7-1.8-1.5-2.4
			c-0.7-0.6-1.6-0.9-2.7-0.9c-1.5,0-2.7,0.5-3.6,1.6c-0.9,1.1-1.4,2.8-1.4,5.1c0,2.5,0.5,4.3,1.3,5.3c0.9,1.1,2.1,1.6,3.5,1.6
			c1.1,0,2-0.3,2.7-1C470.3,50.3,470.9,49.2,471.2,47.8z"/>
		<path class="st14" d="M457.5,79l3.9-0.4c0.2,1.3,0.7,2.3,1.4,2.9c0.7,0.6,1.7,0.9,2.9,0.9c1.3,0,2.3-0.3,2.9-0.8
			c0.7-0.5,1-1.2,1-1.9c0-0.5-0.1-0.9-0.4-1.2c-0.3-0.3-0.8-0.6-1.4-0.9c-0.5-0.2-1.5-0.4-3.2-0.9c-2.1-0.5-3.6-1.2-4.5-2
			c-1.2-1.1-1.8-2.4-1.8-4c0-1,0.3-1.9,0.9-2.8c0.6-0.9,1.4-1.5,2.5-2c1.1-0.5,2.4-0.7,3.9-0.7c2.5,0,4.3,0.5,5.6,1.6
			c1.3,1.1,1.9,2.5,2,4.4l-4,0.2c-0.2-1-0.5-1.7-1.1-2.2c-0.6-0.4-1.4-0.7-2.5-0.7c-1.2,0-2.1,0.2-2.7,0.7c-0.4,0.3-0.6,0.7-0.6,1.2
			c0,0.5,0.2,0.9,0.6,1.2c0.5,0.4,1.7,0.9,3.7,1.3c1.9,0.5,3.4,0.9,4.3,1.4c0.9,0.5,1.7,1.2,2.2,2c0.5,0.8,0.8,1.9,0.8,3.1
			c0,1.1-0.3,2.2-0.9,3.2c-0.6,1-1.5,1.7-2.7,2.2c-1.2,0.5-2.6,0.7-4.3,0.7c-2.5,0-4.4-0.6-5.8-1.7C458.6,82.9,457.8,81.2,457.5,79z
			"/>
		<path class="st14" d="M475.2,71.1h4l3.4,10.2l3.3-10.2h3.9l-5.1,13.8l-0.9,2.5c-0.3,0.8-0.6,1.5-0.9,1.9c-0.3,0.4-0.6,0.8-1,1.1
			c-0.4,0.3-0.9,0.5-1.4,0.6c-0.6,0.2-1.2,0.2-1.9,0.2c-0.7,0-1.4-0.1-2.1-0.2l-0.3-3c0.6,0.1,1.1,0.2,1.6,0.2c0.9,0,1.5-0.3,2-0.8
			c0.4-0.5,0.7-1.2,1-2L475.2,71.1z"/>
		<path class="st14" d="M491,81.3l3.8-0.6c0.2,0.7,0.5,1.3,1,1.7c0.5,0.4,1.2,0.6,2.1,0.6c1,0,1.7-0.2,2.2-0.5
			c0.3-0.2,0.5-0.6,0.5-1c0-0.3-0.1-0.5-0.3-0.7c-0.2-0.2-0.6-0.3-1.3-0.5c-3.1-0.7-5-1.3-5.8-1.8c-1.1-0.8-1.7-1.8-1.7-3.2
			c0-1.2,0.5-2.3,1.5-3.1c1-0.8,2.5-1.3,4.6-1.3c2,0,3.4,0.3,4.4,1c1,0.6,1.6,1.6,2,2.8l-3.6,0.7c-0.2-0.6-0.4-1-0.9-1.3
			c-0.4-0.3-1-0.4-1.8-0.4c-1,0-1.7,0.1-2.1,0.4c-0.3,0.2-0.4,0.5-0.4,0.8c0,0.3,0.1,0.5,0.4,0.7c0.3,0.3,1.5,0.6,3.5,1.1
			c2,0.5,3.4,1,4.2,1.7c0.8,0.7,1.2,1.6,1.2,2.8c0,1.3-0.5,2.4-1.6,3.4c-1.1,0.9-2.7,1.4-4.9,1.4c-2,0-3.5-0.4-4.6-1.2
			C492.1,83.8,491.3,82.7,491,81.3z"/>
		<path class="st14" d="M514.2,71.1v3h-2.6v5.8c0,1.2,0,1.8,0.1,2c0.1,0.2,0.2,0.4,0.3,0.5c0.2,0.1,0.4,0.2,0.6,0.2
			c0.4,0,0.9-0.1,1.5-0.4l0.3,2.9c-0.9,0.4-1.9,0.6-3,0.6c-0.7,0-1.3-0.1-1.8-0.3c-0.5-0.2-1-0.5-1.2-0.9c-0.3-0.4-0.4-0.9-0.5-1.5
			c-0.1-0.4-0.1-1.3-0.1-2.7v-6.2h-1.7v-3h1.7v-2.8l3.8-2.2v5.1H514.2z"/>
		<path class="st14" d="M525.2,80.9l3.8,0.6c-0.5,1.4-1.3,2.4-2.3,3.2c-1,0.7-2.4,1.1-3.9,1.1c-2.5,0-4.3-0.8-5.5-2.4
			c-0.9-1.3-1.4-2.9-1.4-4.9c0-2.4,0.6-4.2,1.9-5.6c1.2-1.3,2.8-2,4.7-2c2.1,0,3.8,0.7,5,2.1c1.2,1.4,1.8,3.6,1.8,6.5h-9.5
			c0,1.1,0.3,2,0.9,2.6c0.6,0.6,1.3,0.9,2.2,0.9c0.6,0,1.1-0.2,1.5-0.5C524.6,82.1,525,81.6,525.2,80.9z M525.4,77
			c0-1.1-0.3-1.9-0.8-2.5c-0.5-0.6-1.2-0.9-2-0.9c-0.8,0-1.5,0.3-2,0.9c-0.5,0.6-0.8,1.4-0.8,2.5H525.4z"/>
		<path class="st14" d="M531.9,71.1h3.5v2c1.2-1.5,2.7-2.3,4.5-2.3c0.9,0,1.7,0.2,2.4,0.6c0.7,0.4,1.2,0.9,1.7,1.7
			c0.6-0.8,1.3-1.3,2-1.7c0.7-0.4,1.5-0.6,2.3-0.6c1.1,0,1.9,0.2,2.7,0.6c0.7,0.4,1.3,1.1,1.6,1.9c0.3,0.6,0.4,1.6,0.4,3v9.2h-3.8
			v-8.2c0-1.4-0.1-2.3-0.4-2.8c-0.4-0.5-0.9-0.8-1.6-0.8c-0.5,0-1,0.2-1.5,0.5c-0.5,0.3-0.8,0.8-1,1.4c-0.2,0.6-0.3,1.6-0.3,3v6.9
			h-3.8v-7.8c0-1.4-0.1-2.3-0.2-2.7c-0.1-0.4-0.3-0.7-0.6-0.9c-0.3-0.2-0.7-0.3-1.2-0.3c-0.6,0-1.1,0.2-1.6,0.5
			c-0.5,0.3-0.8,0.8-1,1.4c-0.2,0.6-0.3,1.6-0.3,3v7h-3.8V71.1z"/>
		<path class="st14" d="M559.6,75.5l-3.4-0.6c0.4-1.4,1.1-2.4,2-3.1c0.9-0.7,2.3-1,4.2-1c1.7,0,2.9,0.2,3.8,0.6
			c0.8,0.4,1.4,0.9,1.7,1.5c0.3,0.6,0.5,1.7,0.5,3.4l0,4.4c0,1.3,0.1,2.2,0.2,2.8c0.1,0.6,0.3,1.2,0.7,1.9h-3.7
			c-0.1-0.3-0.2-0.6-0.4-1.1c-0.1-0.2-0.1-0.4-0.1-0.4c-0.6,0.6-1.3,1.1-2.1,1.4c-0.7,0.3-1.5,0.5-2.4,0.5c-1.5,0-2.6-0.4-3.5-1.2
			c-0.8-0.8-1.3-1.8-1.3-3c0-0.8,0.2-1.5,0.6-2.2c0.4-0.6,0.9-1.1,1.6-1.5c0.7-0.3,1.7-0.6,3-0.9c1.8-0.3,3-0.6,3.7-0.9v-0.4
			c0-0.7-0.2-1.2-0.5-1.6c-0.4-0.3-1-0.5-2-0.5c-0.7,0-1.2,0.1-1.6,0.4C560.2,74.3,559.8,74.8,559.6,75.5z M564.7,78.5
			c-0.5,0.2-1.3,0.4-2.3,0.6c-1.1,0.2-1.7,0.4-2.1,0.7c-0.5,0.4-0.7,0.8-0.7,1.3c0,0.5,0.2,1,0.6,1.4c0.4,0.4,0.9,0.6,1.5,0.6
			c0.7,0,1.3-0.2,2-0.7c0.5-0.3,0.8-0.8,0.9-1.3c0.1-0.3,0.1-0.9,0.1-1.8V78.5z"/>
		<path class="st14" d="M578.7,71.1v3h-2.6v5.8c0,1.2,0,1.8,0.1,2c0.1,0.2,0.2,0.4,0.3,0.5c0.2,0.1,0.4,0.2,0.6,0.2
			c0.4,0,0.9-0.1,1.5-0.4l0.3,2.9c-0.9,0.4-1.9,0.6-3,0.6c-0.7,0-1.3-0.1-1.8-0.3c-0.6-0.2-1-0.5-1.2-0.9c-0.3-0.4-0.4-0.9-0.5-1.5
			c-0.1-0.4-0.1-1.3-0.1-2.7v-6.2h-1.7v-3h1.7v-2.8l3.8-2.2v5.1H578.7z"/>
		<path class="st14" d="M581.3,69.2v-3.5h3.8v3.5H581.3z M581.3,85.4V71.1h3.8v14.3H581.3z"/>
		<path class="st14" d="M601.5,75.3l-3.7,0.7c-0.1-0.7-0.4-1.3-0.9-1.7c-0.4-0.4-1-0.6-1.7-0.6c-0.9,0-1.7,0.3-2.3,1
			c-0.6,0.7-0.8,1.7-0.8,3.3c0,1.7,0.3,2.9,0.9,3.6c0.6,0.7,1.3,1.1,2.3,1.1c0.7,0,1.3-0.2,1.8-0.6c0.5-0.4,0.8-1.1,1-2.1l3.7,0.6
			c-0.4,1.7-1.1,3-2.2,3.9c-1.1,0.9-2.6,1.3-4.4,1.3c-2.1,0-3.8-0.7-5-2c-1.2-1.3-1.9-3.2-1.9-5.5c0-2.4,0.6-4.2,1.9-5.5
			c1.3-1.3,2.9-2,5.1-2c1.7,0,3.1,0.4,4.2,1.1C600.3,72.7,601,73.8,601.5,75.3z"/>
		<path class="st14" d="M457.5,109.4l3.9-0.4c0.2,1.3,0.7,2.3,1.4,2.9c0.7,0.6,1.7,0.9,2.9,0.9c1.3,0,2.3-0.3,2.9-0.8
			c0.7-0.5,1-1.2,1-1.9c0-0.5-0.1-0.9-0.4-1.2c-0.3-0.3-0.8-0.6-1.4-0.9c-0.5-0.2-1.5-0.5-3.2-0.9c-2.1-0.5-3.6-1.2-4.5-2
			c-1.2-1.1-1.8-2.4-1.8-4c0-1,0.3-2,0.9-2.8c0.6-0.9,1.4-1.5,2.5-2c1.1-0.5,2.4-0.7,3.9-0.7c2.5,0,4.3,0.5,5.6,1.6
			c1.3,1.1,1.9,2.5,2,4.4l-4,0.2c-0.2-1-0.5-1.7-1.1-2.2c-0.6-0.4-1.4-0.7-2.5-0.7c-1.2,0-2.1,0.2-2.7,0.7c-0.4,0.3-0.6,0.7-0.6,1.2
			c0,0.5,0.2,0.9,0.6,1.2c0.5,0.4,1.7,0.9,3.7,1.3c1.9,0.5,3.4,0.9,4.3,1.4c0.9,0.5,1.7,1.2,2.2,2c0.5,0.8,0.8,1.9,0.8,3.1
			c0,1.1-0.3,2.2-0.9,3.2c-0.6,1-1.5,1.7-2.7,2.2c-1.2,0.5-2.6,0.7-4.3,0.7c-2.5,0-4.4-0.6-5.8-1.7
			C458.6,113.3,457.8,111.6,457.5,109.4z"/>
		<path class="st14" d="M483.5,101.5v3h-2.6v5.8c0,1.2,0,1.8,0.1,2c0,0.2,0.2,0.4,0.3,0.5c0.2,0.1,0.4,0.2,0.6,0.2
			c0.3,0,0.9-0.1,1.5-0.4l0.3,2.9c-0.9,0.4-1.9,0.6-3,0.6c-0.7,0-1.3-0.1-1.8-0.3c-0.5-0.2-1-0.5-1.2-0.9c-0.3-0.4-0.4-0.9-0.5-1.5
			c-0.1-0.4-0.1-1.3-0.1-2.7v-6.2h-1.7v-3h1.7v-2.8l3.8-2.2v5.1H483.5z"/>
		<path class="st14" d="M489.8,115.8H486v-14.3h3.5v2c0.6-1,1.1-1.6,1.6-1.9c0.5-0.3,1-0.5,1.6-0.5c0.9,0,1.7,0.2,2.5,0.7l-1.2,3.3
			c-0.6-0.4-1.2-0.6-1.8-0.6c-0.5,0-1,0.1-1.3,0.4c-0.4,0.3-0.7,0.8-0.9,1.6c-0.2,0.8-0.3,2.4-0.3,4.8V115.8z"/>
		<path class="st14" d="M499.7,105.8l-3.4-0.6c0.4-1.4,1.1-2.4,2-3.1c0.9-0.7,2.3-1,4.2-1c1.7,0,2.9,0.2,3.8,0.6
			c0.8,0.4,1.4,0.9,1.7,1.5c0.3,0.6,0.5,1.7,0.5,3.4l0,4.4c0,1.3,0.1,2.2,0.2,2.8c0.1,0.6,0.3,1.2,0.7,1.9h-3.7
			c-0.1-0.3-0.2-0.6-0.4-1.1c-0.1-0.2-0.1-0.4-0.1-0.4c-0.6,0.6-1.3,1.1-2.1,1.4c-0.7,0.3-1.5,0.5-2.4,0.5c-1.5,0-2.6-0.4-3.5-1.2
			c-0.9-0.8-1.3-1.8-1.3-3c0-0.8,0.2-1.5,0.6-2.2c0.4-0.6,0.9-1.1,1.6-1.5c0.7-0.3,1.7-0.6,3-0.9c1.8-0.3,3-0.6,3.7-0.9v-0.4
			c0-0.7-0.2-1.2-0.5-1.6c-0.4-0.3-1-0.5-2-0.5c-0.7,0-1.2,0.1-1.6,0.4C500.3,104.7,500,105.2,499.7,105.8z M504.8,108.9
			c-0.5,0.2-1.3,0.4-2.3,0.6c-1.1,0.2-1.7,0.4-2.1,0.7c-0.5,0.4-0.7,0.8-0.7,1.3c0,0.5,0.2,1,0.6,1.4c0.4,0.4,0.9,0.6,1.5,0.6
			c0.7,0,1.3-0.2,2-0.7c0.5-0.3,0.8-0.8,0.9-1.3c0.1-0.3,0.1-0.9,0.1-1.8V108.9z"/>
		<path class="st14" d="M518.8,101.5v3h-2.6v5.8c0,1.2,0,1.8,0.1,2c0,0.2,0.2,0.4,0.3,0.5c0.2,0.1,0.4,0.2,0.6,0.2
			c0.4,0,0.9-0.1,1.5-0.4l0.3,2.9c-0.9,0.4-1.9,0.6-3,0.6c-0.7,0-1.3-0.1-1.8-0.3c-0.5-0.2-1-0.5-1.2-0.9c-0.3-0.4-0.4-0.9-0.5-1.5
			c-0.1-0.4-0.1-1.3-0.1-2.7v-6.2h-1.7v-3h1.7v-2.8l3.8-2.2v5.1H518.8z"/>
		<path class="st14" d="M529.7,111.2l3.8,0.6c-0.5,1.4-1.3,2.4-2.3,3.2c-1,0.7-2.4,1.1-3.9,1.1c-2.5,0-4.3-0.8-5.5-2.4
			c-0.9-1.3-1.4-2.9-1.4-4.9c0-2.4,0.6-4.2,1.9-5.6c1.2-1.3,2.8-2,4.7-2c2.1,0,3.8,0.7,5,2.1c1.2,1.4,1.8,3.6,1.8,6.5h-9.5
			c0,1.1,0.3,2,0.9,2.6c0.6,0.6,1.3,0.9,2.2,0.9c0.6,0,1.1-0.2,1.5-0.5C529.2,112.5,529.5,112,529.7,111.2z M530,107.4
			c0-1.1-0.3-1.9-0.9-2.5c-0.5-0.6-1.2-0.9-2-0.9c-0.8,0-1.5,0.3-2.1,0.9c-0.5,0.6-0.8,1.4-0.8,2.5H530z"/>
		<path class="st14" d="M536.5,116.7l4.3,0.5c0.1,0.5,0.2,0.9,0.5,1c0.4,0.3,0.9,0.4,1.7,0.4c1,0,1.7-0.1,2.2-0.4
			c0.3-0.2,0.6-0.5,0.8-1c0.1-0.3,0.2-0.9,0.2-1.7v-2.1c-1.1,1.5-2.6,2.3-4.3,2.3c-1.9,0-3.4-0.8-4.6-2.4c-0.9-1.3-1.3-2.9-1.3-4.8
			c0-2.4,0.6-4.2,1.7-5.5c1.2-1.3,2.6-1.9,4.3-1.9c1.8,0,3.2,0.8,4.4,2.3v-2h3.5v12.9c0,1.7-0.1,3-0.4,3.8c-0.3,0.8-0.7,1.5-1.2,2
			c-0.5,0.5-1.2,0.9-2,1.1c-0.8,0.3-1.9,0.4-3.2,0.4c-2.4,0-4.2-0.4-5.2-1.2c-1-0.8-1.5-1.9-1.5-3.2
			C536.4,117.1,536.4,116.9,536.5,116.7z M539.8,108.3c0,1.5,0.3,2.6,0.9,3.3c0.6,0.7,1.3,1.1,2.2,1.1c0.9,0,1.7-0.4,2.3-1.1
			c0.6-0.7,1-1.8,1-3.2c0-1.5-0.3-2.6-0.9-3.3c-0.6-0.7-1.4-1.1-2.3-1.1c-0.9,0-1.7,0.4-2.2,1.1
			C540.1,105.8,539.8,106.9,539.8,108.3z"/>
		<path class="st14" d="M553.7,99.5V96h3.8v3.5H553.7z M553.7,115.8v-14.3h3.8v14.3H553.7z"/>
		<path class="st14" d="M569.6,111.2l3.8,0.6c-0.5,1.4-1.3,2.4-2.3,3.2c-1,0.7-2.4,1.1-3.9,1.1c-2.5,0-4.3-0.8-5.5-2.4
			c-0.9-1.3-1.4-2.9-1.4-4.9c0-2.4,0.6-4.2,1.9-5.6c1.2-1.3,2.8-2,4.7-2c2.1,0,3.8,0.7,5,2.1c1.2,1.4,1.8,3.6,1.8,6.5h-9.5
			c0,1.1,0.3,2,0.9,2.6c0.6,0.6,1.3,0.9,2.2,0.9c0.6,0,1.1-0.2,1.5-0.5C569.1,112.5,569.4,112,569.6,111.2z M569.9,107.4
			c0-1.1-0.3-1.9-0.8-2.5c-0.5-0.6-1.2-0.9-2-0.9c-0.8,0-1.5,0.3-2,0.9c-0.5,0.6-0.8,1.4-0.8,2.5H569.9z"/>
		<path class="st14" d="M575.4,111.7l3.8-0.6c0.2,0.7,0.5,1.3,1,1.7c0.5,0.4,1.2,0.6,2.1,0.6c1,0,1.7-0.2,2.2-0.5
			c0.3-0.2,0.5-0.6,0.5-1c0-0.3-0.1-0.5-0.3-0.7c-0.2-0.2-0.6-0.3-1.3-0.5c-3.1-0.7-5-1.3-5.8-1.8c-1.1-0.8-1.7-1.8-1.7-3.2
			c0-1.2,0.5-2.3,1.5-3.1c1-0.8,2.5-1.3,4.6-1.3c2,0,3.4,0.3,4.4,1c1,0.6,1.6,1.6,2,2.8l-3.6,0.7c-0.2-0.6-0.4-1-0.9-1.3
			c-0.4-0.3-1-0.4-1.8-0.4c-1,0-1.7,0.1-2.1,0.4c-0.3,0.2-0.4,0.5-0.4,0.8c0,0.3,0.1,0.5,0.4,0.7c0.3,0.2,1.5,0.6,3.5,1.1
			c2,0.5,3.4,1,4.2,1.7c0.8,0.7,1.2,1.6,1.2,2.8c0,1.3-0.6,2.4-1.6,3.4c-1.1,0.9-2.7,1.4-4.9,1.4c-2,0-3.5-0.4-4.6-1.2
			C576.5,114.1,575.7,113.1,575.4,111.7z"/>
	</g>
</g>
</svg>
