<?xml version="1.0" encoding="utf-8"?>
<!-- Generator: Adobe Illustrator 28.3.0, SVG Export Plug-In . SVG Version: 6.00 Build 0)  -->
<svg version="1.1" id="Layer_1" xmlns="http://www.w3.org/2000/svg" xmlns:xlink="http://www.w3.org/1999/xlink" x="0px" y="0px"
	 viewBox="0 0 1039.4 286.5" style="enable-background:new 0 0 1039.4 286.5;" xml:space="preserve">
<style type="text/css">
	.st0{fill:#2B5328;}
</style>
<g>
	<g>
		<path class="st0" d="M1012.8,266.4h-9.6c0-1.5,0.8-5.8,2.7-16.1c1.8-9.6,4.2-22.8,4.2-26.2c0-1.9-1.4-12.7-2.8-23.2
			c-2.1-15.5-4.1-31.6-4.1-36.3h9.6c0,4.3,2.2,21.6,4.1,35.5c1.8,13.4,2.9,21.8,2.9,24.1c0,3.7-1.8,13.7-4.4,27.4
			C1014.2,257.9,1012.9,265.1,1012.8,266.4z M959.9,266.4h-9.6c0-3.3,2.1-8.3,5.6-16.1c3.7-8.4,8.3-19,8.3-25.7
			c0-3.8-2.6-12.8-5.5-22.2c-3.9-13.2-8.4-28.1-8.4-37.7h9.6c0,8.6,4.3,23.1,8.1,35.8c3.1,10.4,5.7,19.4,5.7,24.1
			c0,8.1-4.7,18.9-8.9,28.4C962.6,258.3,959.9,264.2,959.9,266.4z M907.1,266.4h-9.6c0-5.4,4-10.4,8.7-16.3
			c5.7-7.2,12.1-15.3,12.1-25.2c0-5.6-3.7-12.8-8-21.2c-6-11.6-12.7-24.7-12.7-39.1h9.6c0,12.8,6.4,25.1,11.9,36
			c4.8,9.2,8.8,17.1,8.8,24.3c0,12.4-7.6,21.9-13.7,29.6C910.5,259.1,907.1,263.4,907.1,266.4z M865.4,266.4h-9.6
			c0-6.2,1-13.4,2.1-20.9c1.3-9,2.6-18.3,2.6-27.7c0-6.5-1-13.1-2-20.7c-1.3-9.3-2.8-19.8-2.8-32.4h9.6c0,12.1,1.4,22.4,2.7,31.5
			c1,7.6,2.1,14.7,2.1,21.7c0,10-1.4,19.9-2.7,28.6C866.4,253.7,865.4,260.6,865.4,266.4z M823.8,266.4h-9.6
			c0-7.5-2.8-17.1-5.4-26.4c-2.9-10.1-5.9-20.5-5.9-29.4c0-7.7,2.5-14,5.3-20.7c2.9-7.3,6-14.8,6-25.3h9.6c0,11.8-3.5,20.3-6.5,27.8
			c-2.5,6.3-4.8,11.7-4.8,18.1c0,8,2.9,17.9,5.6,27.6C820.9,247.8,823.8,257.9,823.8,266.4z M782.2,266.4h-9.6
			c0-9.2-7.2-21.2-14.2-32.8c-6.8-11.2-13.1-21.9-13.1-30.2c0-9.2,7.6-15.1,14.2-20.3c6.8-5.3,13.1-10.3,13.1-18.4h9.6
			c0,11.6-8.6,18.3-16.2,24.3c-6,4.7-11.2,8.8-11.2,14.5c0,6.4,6.1,16.7,12.1,26.6C774.5,242.5,782.2,255.3,782.2,266.4z
			 M737.6,266.4h-9.6c0-6-4.4-15.9-9.1-26.3c-5.7-12.6-11.5-25.7-11.5-36.1c0-11,6.4-18.3,12.2-24.7c4.5-5.1,8.4-9.4,8.4-14.7h9.6
			c0,7.9-5.2,13.8-10.2,19.5c-5.3,6-10.3,11.6-10.3,20c0,9,5.5,21.3,10.8,33.3C732.9,248.4,737.6,258.9,737.6,266.4z M693,266.4
			h-9.6c0-3.5-2.5-12-5.1-21c-4.1-13.9-8.6-29.6-8.6-40.7c0-11.5,4.9-20.7,8.9-28.2c2.5-4.8,4.8-8.9,4.8-12h9.6
			c0,4.8-2.5,9.6-5.6,15.2c-3.8,7.1-8.1,15.2-8.1,24.9c0,10.2,4.6,26,8.4,38.8C690.6,253.7,693,261.9,693,266.4z M648.4,266.4h-9.6
			c0-1.4-0.9-7.4-1.8-13.7c-2-13.9-5-34.9-5-47.2c0-12.6,3.1-24.9,5.2-33c0.9-3.5,1.7-6.7,1.7-7.9h9.6c0,2-0.7,5-1.9,9.5
			c-2,7.8-4.9,19.5-4.9,31.4c0,12,3,32.6,5,46.3C647.7,260.1,648.4,264.6,648.4,266.4z"/>
	</g>
	<g>
		<path class="st0" d="M88.2,21.7v18.9H45.7V63h36.8v18.9H45.7v38.9H26.3V21.4h61.9V21.7z"/>
		<path class="st0" d="M183.9,120.9l-20.8-31.6h-13v31.6h-19.5V21.4h30c12.4,0,21.9,3,28.7,8.9c6.8,5.9,10.3,14.1,10.3,24.6
			c0,6.2-1.4,11.9-3.8,17.3c-2.4,5.4-6.5,9.5-11.9,12.7l23,36H183.9z M149.8,70.6h13.8c5.4,0,9.2-1.6,11.6-4.6c2.4-3,3.5-6.5,3.5-10
			c0-3.5-1.1-7-3-10.3c-2.2-3.2-5.9-4.9-11.9-4.9h-14.1L149.8,70.6z"/>
		<path class="st0" d="M314,21.7v18.9h-48.1v21.1h42.7v18.9h-42.7V102h50v18.9h-69.7V21.4H314V21.7z"/>
		<path class="st0" d="M427,21.7v18.9h-48.1v21.1h42.7v18.9h-42.7V102h50v18.9h-69.5V21.4H427V21.7z"/>
		<path class="st0" d="M503,38.4c-4.3,0-7.6,0.8-10,2.4c-2.4,1.6-3.5,4.3-3.5,7.6c0,3.2,1.6,5.9,5.1,8.4c3.5,2.4,8.1,4.6,13.8,6.8
			c4.6,1.6,8.7,3.8,11.9,5.9c3.2,2.2,6.2,5.1,8.4,9.2c2.2,4.1,3.2,8.7,3.2,14.6c0,5.1-1.4,10-4.1,14.3c-2.7,4.3-6.5,7.8-11.6,10.3
			c-5.1,2.4-11.4,3.8-18.4,3.8c-5.9,0-11.9-0.8-17.6-2.7c-5.9-1.9-11.4-4.3-16.2-8.1l8.7-15.1c3.5,2.4,7.3,4.6,11.6,6.2
			c4.3,1.6,8.4,2.4,11.9,2.4c4.1,0,7.8-0.8,10.8-2.7c3-1.6,4.6-4.6,4.6-8.7c0-5.1-4.9-9.5-14.3-13.2c-5.7-2.2-10.3-4.3-14.1-6.5
			c-3.8-2.2-7-5.1-9.7-8.9c-2.7-3.8-4.1-8.7-4.1-14.6c0-8.7,2.7-15.4,8.4-20.5s13.2-8.1,22.4-8.4c7.3,0,13.5,0.8,18.4,2.4
			c4.9,1.6,9.7,4.1,14.3,7l-7.3,14.9C516.8,40.9,509.5,38.4,503,38.4z"/>
		<path class="st0" d="M634.7,21.7v18.9h-24.1v80.6h-19.5V40.6h-23.2V21.7H634.7z"/>
		<path class="st0" d="M674.2,46.3c4.6-7.8,10.8-14.1,18.4-18.7c7.8-4.6,16.2-7,25.4-7c9.2,0,17.6,2.4,25.4,7
			c7.8,4.6,14.1,10.8,18.7,18.7s7,16.2,7,25.1c0,9.2-2.4,17.6-7,25.4c-4.6,7.8-10.8,13.8-18.7,18.4c-7.8,4.6-16.2,6.8-25.4,6.8
			c-9.2,0-17.6-2.2-25.4-6.8c-7.8-4.6-13.8-10.8-18.4-18.4c-4.6-7.8-6.8-16.2-6.8-25.4C667.4,62.5,669.6,54.1,674.2,46.3z
			 M691.7,87.4c2.7,4.9,6.5,8.7,11.1,11.6c4.6,2.7,10,4.3,15.7,4.3c5.7,0,10.5-1.4,15.1-4.3s8.1-6.8,10.8-11.4
			c2.7-4.6,3.8-10.3,3.8-15.9c0-5.9-1.4-11.4-4.1-16.2c-2.7-4.9-6.5-8.7-11.1-11.6c-4.6-2.7-9.7-4.3-15.4-4.3
			c-5.7,0-10.8,1.4-15.4,4.3c-4.6,2.7-8.4,6.8-11.1,11.6s-4.1,10.3-4.1,16.2C687.7,77.1,689,82.5,691.7,87.4z"/>
		<path class="st0" d="M901.3,21.7v103.5h-0.5l-69.7-63l0.3,58.7h-19.7V17.6h0.8l69.5,63.8l-0.3-59.7H901.3z"/>
		<path class="st0" d="M1017.8,21.7v18.9h-48.1v21.1h42.7v18.9h-42.7V102h50v18.9H950V21.4h67.9L1017.8,21.7L1017.8,21.7z"/>
	</g>
	<g>
		<path class="st0" d="M98.4,259.2c-3.8,1.9-8.1,3.2-13,4.3c-4.6,1.1-8.9,1.6-13,1.6c-10.5,0-19.7-2.2-27.8-6.2
			c-7.8-4.1-14.1-9.7-18.4-17c-4.3-7.3-6.5-15.4-6.5-24.9c0-11.6,2.2-21.4,6.8-29.5c4.6-8.1,10.8-14.1,18.4-18.1
			c7.8-4.1,16.2-5.9,25.7-5.9c5.9,0,11.6,0.5,17,1.9c5.4,1.4,10,3,14.1,5.1l-6.2,18.1c-2.7-1.4-6.2-2.7-10.8-4.1
			c-4.6-1.4-8.4-1.9-11.4-1.9c-10.8,0-19.2,2.7-24.9,8.1c-5.7,5.4-8.7,13.5-8.7,24.1c0,6.2,1.4,11.4,4.1,15.9
			c2.7,4.6,6.8,8.1,11.6,10.5c4.9,2.4,10.8,3.5,17,3.5s10.5-0.8,13.5-2.4v-11.9H69.4v-18.9h37v41.9
			C105.1,255.6,102.4,257.5,98.4,259.2z"/>
		<path class="st0" d="M205.7,264l-20.8-31.6h-13V264h-19.5v-99.5h30c12.4,0,21.9,3,28.7,8.9c6.8,5.9,10.3,14.1,10.3,24.6
			c0,6.2-1.4,11.9-3.8,17.3c-2.4,5.4-6.5,9.5-11.9,12.7l23,36H205.7z M171.7,213.7h13.8c5.4,0,9.2-1.6,11.6-4.6
			c2.4-3,3.5-6.5,3.5-10c0-3.5-1.1-7-3-10.3c-2.2-3.2-5.9-4.9-11.9-4.9h-14.1L171.7,213.7L171.7,213.7z"/>
		<path class="st0" d="M265.2,189.4c4.6-7.8,10.8-14.1,18.4-18.7c7.8-4.6,16.2-7,25.4-7c9.2,0,17.6,2.4,25.4,7
			c7.8,4.6,14.1,10.8,18.7,18.7c4.6,7.8,7,16.2,7,25.1c0,9.2-2.4,17.6-7,25.4c-4.6,7.8-10.8,13.8-18.7,18.4
			c-7.8,4.6-16.2,6.8-25.4,6.8c-9.2,0-17.6-2.2-25.4-6.8c-7.8-4.6-13.8-10.8-18.4-18.4c-4.6-7.8-6.8-16.2-6.8-25.4
			C258.5,205.6,260.6,197.3,265.2,189.4z M282.8,230.5c2.7,4.9,6.5,8.7,11.1,11.6c4.6,3,10,4.3,15.7,4.3c5.7,0,10.5-1.4,15.1-4.3
			c4.6-2.7,8.1-6.8,10.8-11.4c2.7-4.6,3.8-10.3,3.8-15.9c0-5.9-1.4-11.4-4.1-16.2c-2.7-4.9-6.5-8.7-11.1-11.6
			c-4.6-3-9.7-4.3-15.4-4.3s-10.8,1.4-15.4,4.3c-4.6,2.7-8.4,6.8-11.1,11.6c-2.7,4.9-4.1,10.3-4.1,16.2
			C278.7,220.2,280.1,225.6,282.8,230.5z"/>
		<path class="st0" d="M478.3,164.8l-45.4,104.1l-45.4-104.1H411l22.7,56l21.4-56H478.3z"/>
		<path class="st0" d="M586.4,164.8v18.9h-48.1v21.1H581v18.9h-42.7v21.4h50V264h-69.7v-99.5h67.9V164.8z"/>
	</g>
</g>
</svg>