<?xml version="1.0" encoding="utf-8"?>
<!-- Generator: Adobe Illustrator 27.2.0, SVG Export Plug-In . SVG Version: 6.00 Build 0)  -->
<svg version="1.1" id="Layer_1" xmlns="http://www.w3.org/2000/svg" xmlns:xlink="http://www.w3.org/1999/xlink" x="0px" y="0px"
	 viewBox="0 0 1920 860.4" enable-background="new 0 0 1920 860.4" xml:space="preserve">
<g>
	<path fill="#77787B" d="M1633,416.5v-23.7h-29.4v-36.8l-1,0.3l-27.6,8.4l-0.5,0.2v27.9h-43.6v-15.5c0-7.2,1.6-12.8,4.8-16.5
		c3.2-3.6,7.7-5.5,13.5-5.5c4.2,0,8.4,1,12.8,2.9l1.1,0.5v-24.9l-0.5-0.2c-4-1.5-9.5-2.2-16.3-2.2c-8.6,0-16.4,1.9-23.2,5.6
		c-6.8,3.7-12.1,9-15.9,15.7c-3.7,6.7-5.6,14.5-5.6,23v17.1H1481v23.7h20.5v99.7h29.4v-99.7h43.6v63.4c0,26.1,12.3,39.3,36.6,39.3
		c4,0,8.2-0.5,12.5-1.4c4.4-0.9,7.3-1.9,9.1-2.9l0.4-0.2v-23.9l-1.2,0.8c-1.6,1.1-3.6,1.9-5.9,2.6c-2.3,0.7-4.3,1-5.8,1
		c-5.7,0-9.9-1.5-12.5-4.6c-2.6-3.1-4-8.4-4-15.9v-58.3H1633L1633,416.5z M1415.4,495.2c-10.7,0-19.1-3.5-25-10.5c-6-7-9-17-9-29.7
		c0-13.1,3-23.3,9-30.4c5.9-7.1,14.3-10.7,24.8-10.7c10.2,0,18.3,3.4,24.1,10.2c5.8,6.8,8.8,17,8.8,30.2c0,13.4-2.8,23.7-8.3,30.6
		C1434.3,491.7,1426.1,495.2,1415.4,495.2 M1416.7,389.9c-20.3,0-36.5,6-48,17.7c-11.5,11.8-17.4,28-17.4,48.4
		c0,19.3,5.7,34.9,16.9,46.2c11.2,11.3,26.5,17.1,45.5,17.1c19.7,0,35.6-6,47.1-18c11.5-11.9,17.4-28,17.4-47.9
		c0-19.6-5.5-35.3-16.3-46.5C1451.1,395.6,1435.9,389.9,1416.7,389.9 M1304,389.9c-13.8,0-25.3,3.5-34,10.5
		c-8.8,7-13.3,16.2-13.3,27.4c0,5.8,1,10.9,2.9,15.3c1.9,4.4,4.9,8.2,8.8,11.5c3.9,3.2,9.9,6.6,17.9,10c6.7,2.8,11.7,5.1,14.9,6.9
		c3.1,1.8,5.3,3.6,6.5,5.4c1.2,1.7,1.8,4.1,1.8,7c0,8.3-6.2,12.3-19,12.3c-4.7,0-10.1-1-16.1-2.9c-5.9-1.9-11.4-4.7-16.5-8.3
		l-1.2-0.9v28.3l0.4,0.2c4.2,1.9,9.4,3.5,15.6,4.8c6.2,1.3,11.8,1.9,16.6,1.9c15,0,27.1-3.6,35.9-10.6c8.9-7.1,13.4-16.5,13.4-28
		c0-8.3-2.4-15.5-7.2-21.2c-4.7-5.7-13-10.9-24.5-15.6c-9.1-3.7-15-6.7-17.4-9.1c-2.3-2.3-3.5-5.5-3.5-9.5c0-3.6,1.5-6.5,4.5-8.8
		c3-2.3,7.2-3.5,12.5-3.5c4.9,0,9.9,0.8,14.9,2.3c5,1.5,9.4,3.5,13,6l1.2,0.8v-26.8l-0.5-0.2c-3.4-1.4-7.8-2.7-13.2-3.7
		C1313.1,390.4,1308.2,389.9,1304,389.9 M1180.1,495.2c-10.7,0-19.1-3.5-25-10.5c-6-7-9-17-9-29.7c0-13.1,3-23.3,9-30.4
		c5.9-7.1,14.3-10.7,24.8-10.7c10.2,0,18.3,3.4,24.1,10.2c5.8,6.8,8.8,17,8.8,30.2c0,13.4-2.8,23.7-8.3,30.6
		C1199,491.7,1190.8,495.2,1180.1,495.2 M1181.4,389.9c-20.4,0-36.5,6-48,17.7c-11.5,11.8-17.4,28-17.4,48.4
		c0,19.3,5.7,34.9,16.9,46.2c11.2,11.3,26.5,17.1,45.5,17.1c19.7,0,35.6-6,47.1-18c11.5-11.9,17.4-28,17.4-47.9
		c0-19.6-5.5-35.3-16.3-46.5C1215.7,395.6,1200.5,389.9,1181.4,389.9 M1071.4,414.2v-21.4h-29v123.4h29v-63.1
		c0-10.7,2.4-19.6,7.2-26.2c4.7-6.6,11.1-9.9,18.8-9.9c2.6,0,5.5,0.4,8.7,1.3c3.1,0.8,5.4,1.8,6.8,2.7l1.2,0.9v-29.3l-0.5-0.2
		c-2.7-1.1-6.5-1.7-11.4-1.7c-7.3,0-13.8,2.3-19.4,7c-4.9,4.1-8.5,9.6-11.2,16.6H1071.4z M990.4,389.9c-13.3,0-25.2,2.9-35.3,8.5
		c-10.1,5.6-18,13.7-23.3,23.9c-5.3,10.2-8,22.2-8,35.5c0,11.7,2.6,22.4,7.8,31.8c5.2,9.4,12.5,16.8,21.7,22
		c9.2,5.1,19.9,7.7,31.7,7.7c13.8,0,25.6-2.8,35-8.2l0.4-0.2v-26.6l-1.2,0.9c-4.3,3.1-9.1,5.6-14.2,7.4c-5.1,1.8-9.8,2.7-13.9,2.7
		c-11.4,0-20.5-3.6-27.2-10.6c-6.7-7-10-16.9-10-29.3c0-12.5,3.5-22.6,10.4-30.1c6.9-7.5,16.1-11.2,27.2-11.2
		c9.5,0,18.8,3.2,27.6,9.6l1.2,0.9v-28l-0.4-0.2c-3.3-1.9-7.8-3.4-13.4-4.5C1001,390.5,995.6,389.9,990.4,389.9 M903.8,392.9h-29
		v123.4h29V392.9L903.8,392.9z M889.6,340.3c-4.8,0-8.9,1.6-12.4,4.8c-3.4,3.2-5.2,7.3-5.2,12.1c0,4.7,1.7,8.7,5.1,11.9
		c3.4,3.1,7.6,4.7,12.4,4.7c4.9,0,9.1-1.6,12.5-4.7c3.4-3.2,5.2-7.1,5.2-11.9c0-4.6-1.7-8.7-5.1-12
		C898.9,342,894.6,340.3,889.6,340.3 M817.2,383.7v132.5h29.6V344.1h-41L753.7,472l-50.6-127.9h-42.7v172.2h27.8V383.7h1l53.4,132.5
		h21l52.6-132.5L817.2,383.7L817.2,383.7z"/>
	<path fill="#F26522" d="M423.5,423.1H287V286.5h136.5V423.1z"/>
	<path fill="#8DC63F" d="M574.3,423.1H437.8V286.5h136.5L574.3,423.1L574.3,423.1z"/>
	<path fill="#00AEEF" d="M423.5,573.9H287V437.3h136.5V573.9z"/>
	<path fill="#FFC20E" d="M574.3,573.9H437.8V437.3h136.5L574.3,573.9L574.3,573.9z"/>
</g>
</svg>
