<?xml version="1.0" encoding="UTF-8"?>
<svg id="Layer_1" xmlns="http://www.w3.org/2000/svg" version="1.1" viewBox="0 0 1053 303">
  <!-- Generator: Adobe Illustrator 29.5.1, SVG Export Plug-In . SVG Version: 2.1.0 Build 141)  -->
  <defs>
    <style>
      .st0 {
        fill: #63df4e;
      }

      .st0, .st1 {
        fill-rule: evenodd;
      }
    </style>
  </defs>
  <g>
    <path class="st1" d="M290.488,125.765c-9.701,0-18.138,3.374-25.308,8.858v-8.014h-22.777v89.001h23.621v-56.944c3.374-4.64,11.389-10.967,21.512-10.967,3.796,0,6.749.422,9.701,1.265v-22.777c-2.109-.422-4.64-.422-6.749-.422"/>
    <path class="st1" d="M82.539,188.614c5.905,5.483,15.185,8.858,24.465,8.858,6.327,0,11.389-2.953,11.389-7.592,0-13.498-43.024-8.436-43.024-37.541,0-17.294,16.45-27.839,34.166-27.839,11.389,0,24.043,4.218,29.948,8.858l-10.967,17.294c-4.64-3.374-10.545-5.905-16.872-5.905-6.749,0-12.232,2.531-12.232,7.171,0,11.389,43.024,7.171,43.024,37.962,0,17.294-16.872,27.417-35.432,27.417-12.232,0-25.308-4.218-35.853-11.811l11.389-16.872Z"/>
    <path class="st1" d="M232.279,170.476c0-24.886-17.294-45.555-41.759-45.555-26.574,0-43.446,21.512-43.446,46.398,0,27.839,19.825,46.398,46.398,46.398,13.92,0,27.839-5.905,36.275-16.029l-13.498-13.498c-4.218,4.64-12.232,10.123-22.356,10.123-12.654,0-22.777-8.436-24.043-21.09h61.583c.422-2.109.844-4.218.844-6.749h0ZM171.118,159.931c1.265-8.014,9.28-15.607,18.981-15.607s16.872,7.592,17.716,15.607h-36.697Z"/>
    <polygon class="st1" points="354.181 181.021 378.224 126.609 403.11 126.609 362.195 216.031 345.745 216.031 304.83 126.609 329.716 126.609 354.181 181.021"/>
    <g>
      <path class="st1" d="M423.357,84.85c8.436,0,15.607,6.749,15.607,15.185s-7.171,15.185-15.607,15.185-15.607-6.749-15.607-15.185,6.749-15.185,15.607-15.185"/>
      <rect x="411.124" y="126.609" width="23.621" height="89.001"/>
    </g>
    <path class="st1" d="M533.448,197.472c-10.545,13.92-23.621,20.247-40.493,20.247-27.417,0-47.664-20.668-47.664-46.398s20.668-46.398,47.664-46.398c15.185,0,29.105,7.171,37.541,17.716l-16.872,14.763c-4.64-6.327-11.811-10.545-20.668-10.545-13.92,0-24.043,10.967-24.043,24.465,0,13.92,10.123,24.465,24.465,24.465,9.701,0,17.294-5.905,21.09-11.811l18.981,13.498Z"/>
    <path class="st1" d="M619.917,201.69c-8.436,10.123-22.777,16.029-36.275,16.029-26.574,0-46.398-18.559-46.398-46.398,0-24.886,16.872-46.398,43.446-46.398,24.465,0,41.759,20.668,41.759,45.555,0,2.531,0,4.64-.422,6.749h-61.583c1.265,12.654,11.389,21.09,24.043,21.09,10.123,0,18.138-5.905,22.356-10.123l13.076,13.498h0ZM597.984,159.931c-.844-8.014-8.014-15.607-17.716-15.607s-18.138,7.592-18.981,15.607h36.697Z"/>
    <path class="st1" d="M631.728,216.031v-89.422h22.777v7.171c6.749-5.483,15.185-8.858,25.308-8.858,12.232,0,23.621,5.483,30.792,14.341,5.905,7.171,9.28,16.029,9.28,31.214v45.555h-23.621v-47.242c0-8.858-2.109-13.498-5.483-16.872-2.953-2.953-8.014-5.062-13.498-5.062-10.123,0-18.138,6.327-21.512,10.967v57.787h-24.043v.422h0Z"/>
    <path class="st0" d="M781.047,124.921c-28.261,0-51.882,23.199-52.304,51.882,0,15.185,6.327,28.683,16.45,38.384,3.796,3.374,9.28,3.796,13.498.844,5.905-4.64,13.498-7.171,22.356-7.171s16.45,2.953,22.356,7.171c4.218,2.953,9.702,2.953,13.498-.844,10.123-9.701,16.029-22.777,16.029-37.962-.422-29.104-23.199-52.304-51.882-52.304M780.625,202.955c-15.607,0-26.152-11.811-26.152-26.152s10.545-26.152,26.152-26.152,26.152,11.811,26.152,26.152c0,14.763-10.545,26.152-26.152,26.152"/>
    <polygon class="st1" points="879.749 216.031 862.033 216.031 826.601 126.609 850.644 126.609 870.047 177.647 889.029 126.609 908.853 126.609 927.834 177.647 947.237 126.609 970.858 126.609 935.427 216.031 917.711 216.031 898.73 164.993 879.749 216.031"/>
  </g>
  <g>
    <path d="M971.28,205.908h-2.109v3.796h-1.687v-10.545h4.218c1.687,0,3.374,1.687,3.374,3.374,0,1.265-.844,2.531-2.109,2.953l2.531,4.218h-1.687l-2.531-3.796h0ZM969.171,204.221h2.531c.844,0,1.687-.844,1.687-1.687s-.844-1.687-1.687-1.687h-2.531s0,3.374,0,3.374Z"/>
    <path d="M970.858,194.941c5.483,0,9.702,4.218,9.702,9.701s-4.218,9.701-9.702,9.701-9.702-4.218-9.702-9.701,4.64-9.701,9.702-9.701M970.858,193.675c-6.327,0-10.967,5.062-10.967,10.967,0,6.327,5.062,10.967,10.967,10.967,6.327,0,10.967-5.062,10.967-10.967.422-6.327-4.64-10.967-10.967-10.967h0Z"/>
  </g>
</svg>