<svg xmlns="http://www.w3.org/2000/svg" viewBox="0 0 810 216"><path d="M230.84,142.3V85.76H206.76V73.7h60.33V85.76H243V142.3Z"/><path d="M348.41,73.7h12l-16.84,68.6h-11L317,94.7l-15.73,47.6H290.67l-17-68.6h12.11L297,121.43,312.75,73.7h8.75l15.65,47.77Z"/><path d="M397.45,143.1a35.11,35.11,0,1,1,35.17-35.17A35.19,35.19,0,0,1,397.45,143.1ZM374.88,108A22.62,22.62,0,1,0,397.5,85.36,22.65,22.65,0,0,0,374.88,108Z"/><path d="M489.92,143.1c-15.24,0-24.8-7.37-27.8-21.58h13.45c2.46,6.7,6.8,9.51,14.84,9.56,8.27,0,12.56-3.8,12.56-8.36,0-3.26-1.39-5.85-8.09-7.24l-12.51-2.59c-12.69-2.64-18.19-8.49-18.19-18.41,0-10.73,9.56-21.59,25.56-21.59,13.45,0,23.51,8,25.56,21.81H502.75c-2-6.7-6.53-9.78-13.5-9.78-7.91,0-11.89,4.2-11.8,8.67.09,4.11,2.55,6.25,8.94,7.55l12.78,2.63c12.42,2.55,17.47,7.78,17.47,18C516.64,134.34,505.65,143.1,489.92,143.1Z"/><path d="M526.7,142.3V73.7h12.16v68.6Z"/><path d="M583.41,143.1a35.11,35.11,0,1,1-.22-70.21c14.16,0,26.63,8.45,32.26,21.81H601.24a21.81,21.81,0,0,0-18-9.34A22.64,22.64,0,1,0,604,117.09H584.75V105h30.88V142.3H605.31V133C599.59,140.2,591.68,143.1,583.41,143.1Z"/><path d="M659.7,142.3,639,97.16V142.3H627V73.7h13.41L663,122.77,685.49,73.7h13.09v68.6H686.51V97.16L665.82,142.3Z"/><path d="M717.67,142.3H704.4l29.05-68.6h9.25l29.45,68.6H758.79l-5-11.94H722.54Zm9.7-23.82h21.54L738,92.29Z"/><path d="M99,107.82c4.07-4.07,5.95-7.87,5.95-12.7A17.5,17.5,0,0,0,70,94h8.86a8.7,8.7,0,0,1,17.32,1.21c0,2.37-.9,4.52-3.36,7l-23,23v8.5h35.79V125H81.83Z" fill="#fff"/><path d="M141.77,100.57h7l7.69-7.69H131.13c-13.16,0-22.46,9-22.46,20.58A20.59,20.59,0,0,0,129.16,134a20.37,20.37,0,0,0,20.53-20.18C149.69,109.14,147.68,104.05,141.77,100.57Zm-12.7,25a12.08,12.08,0,0,1,0-24.16,12.08,12.08,0,1,1,0,24.16Z" fill="#fff"/><path d="M141.37,113.46a12.28,12.28,0,0,1-12.3,12.08,12.08,12.08,0,0,1,0-24.16A12.31,12.31,0,0,1,141.37,113.46ZM180,108l-9,9-54,54-9,9-9-9L45,117l-9-9,9-9L99,45l9-9,9,9,54,54Zm-74.35,25.59V125H81.83L99,107.82c4.07-4.07,5.95-7.87,5.95-12.7A17.5,17.5,0,0,0,70,94h8.86a8.7,8.7,0,0,1,17.32,1.21c0,2.37-.9,4.52-3.36,7l-23,23v8.5Zm36.14-33h7l7.69-7.69H131.13c-13.16,0-22.46,9-22.46,20.58A20.59,20.59,0,0,0,129.16,134a20.37,20.37,0,0,0,20.53-20.18C149.69,109.14,147.68,104.05,141.77,100.57Z" fill="#00a5bd"/></svg>