<?xml version="1.0" encoding="UTF-8" standalone="no"?>
<!-- Generator: Adobe Illustrator 15.0.0, SVG Export Plug-In . SVG Version: 6.00 Build 0)  -->

<svg
   version="1.1"
   id="Layer_1"
   x="0px"
   y="0px"
   width="400"
   height="200"
   viewBox="0 0 400 200.00001"
   enable-background="new 0 0 800 280"
   xml:space="preserve"
   sodipodi:docname="amazon.svg"
   inkscape:version="1.3.1 (91b66b0, 2023-11-16)"
   xmlns:inkscape="http://www.inkscape.org/namespaces/inkscape"
   xmlns:sodipodi="http://sodipodi.sourceforge.net/DTD/sodipodi-0.dtd"
   xmlns="http://www.w3.org/2000/svg"
   xmlns:svg="http://www.w3.org/2000/svg"><defs
   id="defs18" /><sodipodi:namedview
   id="namedview18"
   pagecolor="#ffffff"
   bordercolor="#000000"
   borderopacity="0.25"
   inkscape:showpageshadow="2"
   inkscape:pageopacity="0.0"
   inkscape:pagecheckerboard="0"
   inkscape:deskcolor="#d1d1d1"
   showguides="true"
   inkscape:zoom="1.5525"
   inkscape:cx="-123.34944"
   inkscape:cy="45.088567"
   inkscape:window-width="1392"
   inkscape:window-height="1027"
   inkscape:window-x="336"
   inkscape:window-y="31"
   inkscape:window-maximized="0"
   inkscape:current-layer="Layer_1" />


<g
   id="g19"
   transform="translate(14.4145,44.087)"><g
     id="g9"
     transform="translate(-4.661,-94.67)">
	<path
   fill="#f8971d"
   d="m 231.895,176.999 c -1.601,0.598 -3.382,1.398 -4.99,1.996 -22.909,8.968 -47.031,13.153 -69.369,13.153 -35.463,0 -69.746,-9.77 -97.474,-25.898 -2.577,-1.398 -4.38,1.173 -2.175,2.979 25.71,23.319 59.602,37.267 97.473,37.267 23.516,0 50.636,-6.586 71.545,-19.131 2.814,-1.592 5.589,-3.38 8.192,-5.391 3.584,-2.575 0.375,-6.556 -3.202,-4.975 z"
   id="path8" />
	<path
   fill="#f8971d"
   d="m 253.231,164.644 c -1.797,-2.2 -14.945,-4.182 -26.326,-0.801 -3.174,1.009 -5.959,2.407 -8.56,4.192 -1.979,1.395 -1.579,3.18 0.399,2.976 2.202,-0.404 4.986,-0.608 8.161,-0.998 v 0.019 c 6.994,-0.602 15.158,-0.802 17.16,1.784 2.786,3.396 -3.18,18.154 -5.779,24.518 -0.803,1.985 0.998,2.802 2.799,1.388 8.968,-7.58 12.752,-21.301 12.945,-28.491 v -1.194 c 0,-1.612 -0.4,-2.792 -0.799,-3.393 z"
   id="path9" />
</g><g
     id="g18"
     transform="translate(-4.661,-94.67)">
	<path
   fill="none"
   d="m 294.096,107.242 c -8.58,0.006 -8.98,11.547 -8.98,18.735 0,7.365 -0.202,22.712 8.782,22.712 h 0.206 c 8.563,-0.2 8.97,-12.542 8.97,-19.928 0,-4.987 -0.204,-10.971 -1.81,-15.757 -1.194,-3.981 -3.576,-5.58 -7.168,-5.762 z"
   id="path10" />
	<path
   fill="none"
   d="m 172.091,140.512 c 0,5.001 2.604,8.381 6.984,8.381 0.596,0 0.998,-0.204 1.604,-0.204 2.575,-0.598 4.779,-2.396 6.362,-5.18 2.198,-3.983 2.198,-7.587 2.198,-12.171 v -2.377 c -2.981,0 -5.985,0.2 -8.56,0.796 -4.789,1.401 -8.588,4.385 -8.588,10.755 z"
   id="path11" />
	<path
   fill="none"
   d="m 38.54,128.962 c -2.98,0 -5.979,0.2 -8.565,0.796 -4.779,1.4 -8.56,4.384 -8.56,10.754 0,5.001 2.579,8.381 6.963,8.381 0.604,0 1.198,-0.204 1.597,-0.204 2.586,-0.598 4.99,-2.396 6.371,-5.18 2.397,-3.983 2.195,-7.587 2.195,-12.171 v -2.376 z"
   id="path12" />
	<path
   fill="#232f3f"
   d="m 260.614,143.51 c -6.584,-3.582 -14.346,-4.784 -21.532,-4.584 l 19.531,-27.921 c 1.805,-2.581 2.781,-4.187 2.781,-5.363 v -7.188 c 0,-1.2 -0.976,-2.178 -2.172,-2.178 H 221.55 c -1.198,0 -2.206,0.978 -2.206,2.178 v 8.387 c 0,1.388 1.007,2.182 2.206,2.182 h 19.718 l -22.722,32.487 c -1.398,2.201 -1.398,4.58 -1.398,5.782 v 8.37 c 0,1.195 1.398,2.798 2.801,1.996 12.752,-6.782 28.102,-6.181 39.871,0 1.379,0.598 2.781,-0.801 2.781,-1.996 v -8.768 c -0.198,-1.184 -0.601,-2.378 -1.987,-3.384 z"
   id="path13" />
	<path
   fill="#232f3f"
   d="m 54.702,138.123 v -17.932 c 0,-7.589 0.575,-14.55 -4.987,-19.733 C 45.128,96.274 37.95,94.67 32.362,94.67 H 29.974 C 19.813,95.267 9.04,99.655 6.642,112.207 c -0.399,1.604 0.798,2.202 1.603,2.398 l 11.166,1.404 c 1.2,-0.204 1.799,-1.2 2.003,-2.198 0.98,-4.387 4.584,-6.571 8.56,-6.972 h 0.807 c 2.378,0 4.963,0.987 6.365,2.985 1.596,2.382 1.394,5.584 1.394,8.363 v 1.608 c -2.601,0.196 -5.581,0.395 -8.565,0.796 -4.577,0.599 -9.167,1.38 -12.942,3.183 -7.389,2.983 -12.372,9.369 -12.372,18.73 0,11.772 7.582,17.753 17.156,17.753 3.178,0 5.764,-0.393 8.157,-0.99 3.792,-1.206 6.968,-3.402 10.754,-7.372 2.202,2.982 2.801,4.385 6.582,7.568 1.005,0.401 1.983,0.401 2.787,-0.196 2.402,-2.011 6.58,-5.584 8.764,-7.591 0.998,-0.802 0.797,-1.981 0.22,-2.987 -2.201,-2.796 -4.379,-5.179 -4.379,-10.566 z m -18.357,5.387 c -1.38,2.783 -3.785,4.582 -6.371,5.18 -0.399,0 -0.993,0.204 -1.597,0.204 -4.384,0 -6.963,-3.38 -6.963,-8.381 0,-6.371 3.781,-9.354 8.56,-10.754 2.586,-0.596 5.585,-0.796 8.565,-0.796 v 2.377 c 10e-4,4.583 0.203,8.187 -2.194,12.17 z"
   id="path14" />
	<path
   fill="#232f3f"
   d="m 372.846,102.239 c -3.204,-5.185 -8.387,-6.972 -13.375,-6.972 -7.959,0 -12.563,3.79 -15.754,11.955 h -0.198 v -8.969 c -0.197,-1 -0.993,-1.798 -1.976,-1.798 h -10.771 c -1.2,0 -1.976,0.798 -2.176,1.998 v 58.804 c 0,1.202 0.976,2.011 2.176,2.207 h 11.366 c 1.184,0 2.182,-1.005 2.208,-2.207 v -31.479 c 0,-4.006 0.197,-7.591 1.776,-11.173 1.4,-2.978 3.986,-4.781 6.786,-4.781 7.964,0 7.187,9.365 7.187,15.954 v 31.683 c 0,0.998 0.984,1.784 1.985,1.978 h 11.543 c 1.204,0 2.009,-0.979 2.209,-1.978 v -36.869 c -10e-4,-5.783 -10e-4,-13.571 -2.986,-18.353 z"
   id="path15" />
	<path
   fill="#232f3f"
   d="m 294.103,95.269 v -0.002 h -0.206 c -16.546,0 -25.907,14.355 -25.907,32.691 0,18.13 9.161,32.686 25.907,32.686 h 0.206 c 15.734,-0.204 25.92,-14.151 25.9,-32.089 0,-18.527 -9.157,-33.075 -25.9,-33.286 z m 0,53.42 h -0.206 c -8.984,0 -8.782,-15.347 -8.782,-22.712 0,-7.188 0.401,-18.729 8.98,-18.735 3.592,0.182 5.974,1.781 7.167,5.763 1.606,4.786 1.81,10.771 1.81,15.757 10e-4,7.385 -0.405,19.727 -8.969,19.927 z"
   id="path16" />
	<path
   fill="#232f3f"
   d="m 129.035,95.267 c -6.764,0 -12.949,3.395 -15.73,10.975 -3.204,-7.58 -7.782,-10.975 -14.952,-10.975 -7.187,0 -12.37,3.395 -15.153,10.975 h -0.202 v -7.79 c 0,-1.003 -0.998,-1.979 -2.202,-1.979 H 70.231 c -1.182,0 -2.186,0.976 -2.186,2.189 v 58.799 c 0,0.998 0.801,1.807 2.01,2.003 h 11.547 c 1.197,0 2.198,-1.005 2.198,-2.207 v -31.078 c 0,-6.79 -0.401,-16.355 7.966,-16.355 7.973,0 6.982,9.766 6.982,16.355 v 31.078 c 0,1.202 0.991,1.988 1.985,2.182 h 11.57 c 1.202,0 2.184,-0.979 2.184,-2.182 v -31.1 c 0,-3.378 0,-8.367 1.193,-11.348 1.204,-3.003 3.987,-4.786 6.792,-4.786 3.378,0 5.982,1.204 6.764,5.188 0.601,2.178 0.399,8.563 0.399,10.968 v 31.078 c 0,1.202 0.803,2.011 2.001,2.207 h 11.372 c 1.38,0 2.378,-1.005 2.378,-2.207 v -37.066 c 0,-6.38 0.603,-13.554 -2.983,-18.533 -3.196,-4.406 -8.381,-6.391 -13.368,-6.391 z"
   id="path17" />
	<path
   fill="#232f3f"
   d="m 205.38,138.123 v -17.932 c 0,-7.589 0.395,-14.55 -5.187,-19.733 -4.375,-4.184 -11.552,-5.788 -17.138,-5.788 h -2.395 v 0.002 c -10.368,0.604 -20.917,4.992 -23.319,17.555 -0.377,1.584 0.598,2.182 1.598,2.378 l 11.173,1.404 c 0.995,-0.204 1.801,-1.2 1.98,-2.198 1.001,-4.387 4.402,-6.571 8.589,-6.972 h 0.576 c 2.408,0 5.187,0.987 6.587,2.985 1.601,2.382 1.397,5.584 1.397,8.363 v 1.608 c -2.577,0.196 -5.577,0.395 -8.56,0.796 -4.588,0.599 -9.374,1.38 -13.175,3.183 -7.163,2.983 -12.146,9.369 -12.146,18.73 0,11.772 7.565,17.753 17.132,17.753 3.202,0 5.785,-0.393 8.188,-0.99 3.781,-1.206 6.961,-3.402 10.742,-7.372 2.204,2.982 2.799,4.385 6.585,7.568 0.983,0.401 1.981,0.401 2.787,-0.196 2.384,-2.011 6.582,-5.584 8.758,-7.591 1.013,-0.802 0.805,-1.981 0,-2.987 -1.969,-2.796 -4.172,-5.179 -4.172,-10.566 z m -16.14,-6.784 c 0,4.584 0,8.188 -2.198,12.171 -1.583,2.783 -3.787,4.582 -6.362,5.18 -0.606,0 -1.009,0.204 -1.604,0.204 -4.38,0 -6.984,-3.38 -6.984,-8.381 0,-6.371 3.799,-9.354 8.589,-10.754 2.575,-0.596 5.579,-0.796 8.56,-0.796 v 2.376 z"
   id="path18" />
</g></g>

</svg>
