<?xml version="1.0" encoding="UTF-8"?>
<svg id="Layer_1" data-name="Layer 1" xmlns="http://www.w3.org/2000/svg" viewBox="0 0 516.92 155.73">
  <defs>
    <style>
      .cls-1 {
        fill: #ed6129;
      }

      .cls-2 {
        fill: #17244b;
      }
    </style>
  </defs>
  <g>
    <path class="cls-2" d="m190.68,94.18c-4.54,4.47-10.39,6.55-16.57,6.55-16,0-23.18-11.02-23.24-22.61-.06-11.59,7.5-23.12,23.24-23.12,5.92,0,11.65,2.2,16.12,6.68l-4.72,4.53c-3.15-3.09-7.31-4.53-11.4-4.53-11.21,0-16.31,8.25-16.25,16.38.06,8.06,4.85,16.06,16.25,16.06,4.09,0,8.63-1.7,11.72-4.79l4.85,4.85Z"/>
    <path class="cls-2" d="m226.07,84.35c0,9.2-6.36,16.12-16.12,16.12s-16-6.93-16-16.12,6.36-16.19,16-16.19,16.12,7.06,16.12,16.19Zm-25.64,0c0,5.54,3.59,10.08,9.51,10.08s9.57-4.53,9.57-10.08-3.9-10.2-9.57-10.2-9.51,4.72-9.51,10.2Z"/>
    <path class="cls-2" d="m239.66,55.82v44.03h-6.49v-44.03h6.49Z"/>
    <path class="cls-2" d="m255.47,55.82v44.03h-6.49v-44.03h6.49Z"/>
    <path class="cls-2" d="m271.84,59.66c0,5.35-8.06,5.35-8.06,0s8.06-5.29,8.06,0Zm-7.31,9.01v31.18h6.49v-31.18h-6.49Z"/>
    <path class="cls-2" d="m303.4,99.85v-16.63c0-5.35-3.02-8.94-8.38-8.94s-8.69,4.22-8.69,9.32v16.25h-6.49v-31.12h5.92l.38,4.54c2.96-3.34,6.43-4.98,10.46-4.98,7.56,0,13.35,5.35,13.35,14.87v16.69h-6.55Z"/>
    <path class="cls-2" d="m323.1,86.75c.57,4.72,4.47,7.81,10.14,7.81,3.15,0,7.12-1.2,9.01-3.34l4.22,4.09c-3.21,3.53-8.57,5.29-13.35,5.29-10.2,0-16.75-6.49-16.75-16.44s6.61-16.19,16.31-16.19,16.82,6.11,15.62,18.77h-25.2Zm18.96-5.48c-.38-4.91-3.97-7.5-9.2-7.5-4.72,0-8.63,2.58-9.64,7.5h18.83Z"/>
    <path class="cls-2" d="m379.84,68.8h6.3v31.05h-6.17l-.31-5.04c-2.08,3.97-6.87,5.86-10.71,5.86-9.07.06-15.94-5.8-15.94-16.38s7.12-16.19,16.06-16.19c4.41,0,8.63,2.08,10.58,5.61l.19-4.91Zm-20.34,15.49c0,6.43,4.53,10.33,10.08,10.33,13.42,0,13.42-20.6,0-20.6-5.54,0-10.08,3.91-10.08,10.27Z"/>
    <path class="cls-2" d="m401,68.8l.44,4.09c2.27-3.97,5.79-4.79,9.13-4.79,3.02,0,5.92,1.07,7.69,2.65l-2.96,5.67c-1.57-1.26-3.09-1.89-5.48-1.89-4.47,0-8.38,2.77-8.38,8.5v16.82h-6.49v-31.05h6.05Z"/>
    <path class="cls-2" d="m466.56,90.59h-23.87l-4.16,9.26h-7.5l19.78-44.09h7.68l19.78,44.09h-7.5l-4.22-9.26Zm-11.9-27.4l-9.32,20.97h18.64l-9.32-20.97Z"/>
    <path class="cls-2" d="m484.37,99.85v-44.09h6.99v44.09h-6.99Z"/>
  </g>
  <g>
    <path class="cls-2" d="m100.54,96.83h33.68c-7.76,21.58-28.42,37.01-52.68,37.01-30.91,0-55.97-25.07-55.97-55.97s25.07-55.97,55.97-55.97c24.26,0,44.91,15.43,52.68,36.99h-33.68c-5-5.05-11.76-7.9-19-7.9-14.81,0-26.86,12.05-26.86,26.88s12.05,26.86,26.86,26.86c7.24,0,14-2.84,19-7.9Z"/>
    <path class="cls-1" d="m137.52,77.87c0,1.77-.08,3.52-.25,5.25h-43.22l-2.06,2.7c-2.52,3.3-6.33,5.2-10.46,5.2-7.25,0-13.15-5.9-13.15-13.15s5.9-13.16,13.15-13.16c4.13,0,7.94,1.91,10.46,5.21l2.06,2.69h43.22c.16,1.73.25,3.48.25,5.27Z"/>
  </g>
</svg>