<?xml version="1.0" encoding="UTF-8"?>
<svg id="Layer_1" xmlns="http://www.w3.org/2000/svg" version="1.1" viewBox="0 0 432 144">
  <!-- Generator: Adobe Illustrator 29.6.1, SVG Export Plug-In . SVG Version: 2.1.1 Build 9)  -->
  <defs>
    <style>
      .st0 {
        fill: #ea4535;
      }

      .st1 {
        fill: #f9bc15;
      }

      .st2 {
        fill: #557ebf;
      }

      .st3 {
        fill: #36a852;
      }
    </style>
  </defs>
  <path class="st2" d="M128.9,55.5h-40.4v11.9h28.7c-1.4,16.6-15.3,23.8-28.3,23.8s-31.3-13.2-31.3-31.6,13.9-31.8,31.4-31.8,21.4,8.6,21.4,8.6l8.3-8.6s-10.7-11.9-30.1-11.9-44,20.9-44,43.5,18,43.7,44.6,43.7,40.4-16,40.4-39.7-.7-7.9-.7-7.9h0s0,0,0,0Z"/>
  <path class="st0" d="M163,46.9c-16.4,0-28.2,12.8-28.2,27.8s11.4,28.3,28.4,28.3,27.9-11.7,27.9-27.9c0-18.6-14.6-28.1-28.1-28.1h0ZM163.2,57.9c8.1,0,15.7,6.5,15.7,17s-7.6,17-15.8,17-16-7.2-16-17.1c0-9.7,7-17,16-17h0Z"/>
  <path class="st1" d="M224,46.9c-16.4,0-28.2,12.8-28.2,27.8s11.4,28.3,28.4,28.3,27.9-11.7,27.9-27.9c0-18.6-14.6-28.1-28.1-28.1h0ZM224.1,57.9c8.1,0,15.7,6.5,15.7,17s-7.6,17-15.8,17-16-7.2-16-17.1,7-17,16-17h0Z"/>
  <path class="st2" d="M284.1,46.9c-15.1,0-26.9,13.2-26.9,28s13.7,28.1,26.7,28.1,12.2-3.2,15.4-6.8v5.5c0,9.7-5.9,15.5-14.7,15.5s-12.9-6.4-14.4-10l-10.8,4.5c3.8,8.1,11.5,16.5,25.2,16.5s26.4-9.4,26.4-29.2v-51.1h-11.8v5.4c-3.6-3.9-8.6-6.4-15.1-6.4h0s0,0,0,0ZM285.2,57.9c7.4,0,15,6.3,15,17.1s-7.6,17-15.1,17-15.5-6.5-15.5-16.9c0-10.8,7.8-17.2,15.7-17.2h0Z"/>
  <path class="st0" d="M362.2,46.9c-14.2,0-26.1,11.3-26.1,28s13.3,28.1,27.5,28.1,19.1-6.5,23.5-12.3l-9.7-6.4c-2.5,3.9-6.7,7.7-13.7,7.7s-11.5-4.3-13.8-8.5l37.6-15.6-2-4.6c-3.6-9-12.1-16.4-23.3-16.4h0ZM362.7,57.6c5.1,0,8.8,2.7,10.4,6l-25.1,10.5c-1.1-8.1,6.6-16.5,14.7-16.5h0Z"/>
  <rect class="st3" x="318.8" y="18.7" width="11.5" height="82.6"/>
</svg>