<?xml version="1.0" encoding="utf-8"?>
<!-- Generator: Adobe Illustrator 15.0.0, SVG Export Plug-In . SVG Version: 6.00 Build 0)  -->
<!DOCTYPE svg PUBLIC "-//W3C//DTD SVG 1.1//EN" "http://www.w3.org/Graphics/SVG/1.1/DTD/svg11.dtd">
<svg version="1.1" id="Layer_1" xmlns="http://www.w3.org/2000/svg" xmlns:xlink="http://www.w3.org/1999/xlink" x="0px" y="0px"
	 width="800px" height="120px" viewBox="0 0 800 120" enable-background="new 0 0 800 120" xml:space="preserve">
<g>
	<path fill="#557EBF" d="M94.891,43.677H54.532V55.55h28.723c-1.4,16.647-15.254,23.752-28.33,23.752
		c-16.729,0-31.325-13.164-31.325-31.614c0-17.969,13.916-31.81,31.362-31.81c13.463,0,21.395,8.58,21.395,8.58l8.313-8.608
		c0,0-10.671-11.88-30.131-11.88c-24.783,0-43.956,20.916-43.956,43.509c0,22.138,18.035,43.72,44.587,43.72
		c23.35,0,40.445-15.995,40.445-39.65c0-4.992-0.725-7.876-0.725-7.876V43.677z"/>
	<path fill="#EA4535" d="M129.054,35.079c-16.417,0-28.186,12.834-28.186,27.806c0,15.19,11.416,28.267,28.379,28.267
		c15.357,0,27.939-11.738,27.939-27.939C157.188,44.643,142.551,35.079,129.054,35.079L129.054,35.079z M129.217,46.09
		c8.074,0,15.725,6.53,15.725,17.047c0,10.293-7.617,17.01-15.762,17.01c-8.948,0-16.006-7.17-16.006-17.093
		C113.174,53.344,120.145,46.09,129.217,46.09L129.217,46.09z"/>
	<path fill="#F9BC15" d="M190.003,35.079c-16.417,0-28.183,12.834-28.183,27.806c0,15.19,11.412,28.267,28.375,28.267
		c15.363,0,27.942-11.738,27.942-27.939C218.138,44.643,203.503,35.079,190.003,35.079L190.003,35.079z M190.168,46.09
		c8.078,0,15.725,6.53,15.725,17.047c0,10.293-7.619,17.01-15.76,17.01c-8.949,0-16.007-7.17-16.007-17.093
		C174.126,53.344,181.097,46.09,190.168,46.09L190.168,46.09z"/>
	<path fill="#557EBF" d="M250.126,35.108c-15.063,0-26.914,13.199-26.914,28.013c0,16.877,13.737,28.065,26.656,28.065
		c7.995,0,12.238-3.174,15.378-6.813v5.527c0,9.678-5.872,15.466-14.736,15.466c-8.568,0-12.865-6.367-14.354-9.983l-10.775,4.507
		c3.824,8.085,11.517,16.511,25.215,16.511c14.984,0,26.401-9.435,26.401-29.228V36.099h-11.751v5.445
		c-3.611-3.896-8.555-6.434-15.121-6.434V35.108z M251.217,46.098c7.394,0,14.979,6.31,14.979,17.082
		c0,10.953-7.571,16.99-15.141,16.99c-8.026,0-15.505-6.526-15.505-16.887C235.549,52.522,243.312,46.098,251.217,46.098
		L251.217,46.098z"/>
	<path fill="#EA4535" d="M328.223,35.042c-14.213,0-26.15,11.31-26.15,28c0,17.659,13.307,28.13,27.521,28.13
		c11.858,0,19.144-6.489,23.489-12.304l-9.697-6.446c-2.51,3.902-6.713,7.716-13.736,7.716c-7.877,0-11.501-4.313-13.75-8.497
		l37.597-15.597l-1.954-4.571c-3.632-8.952-12.101-16.427-23.312-16.427L328.223,35.042z M328.716,45.823
		c5.123,0,8.813,2.724,10.375,5.988l-25.103,10.495C312.902,54.182,320.601,45.823,328.716,45.823L328.716,45.823z"/>
	<rect x="284.847" y="6.871" fill="#36A852" width="11.516" height="82.634"/>
</g>
<g>
	<path fill="#5D5F66" d="M414.856,57.907h-16.911v27.979H388.4V16.718h23.833c8.112,0,14.346,1.774,18.717,5.321
		c4.368,3.547,6.549,8.712,6.549,15.485c0,4.31-1.213,8.063-3.634,11.259c-2.422,3.2-5.792,5.594-10.112,7.174l16.911,29.355v0.573
		h-10.186L414.856,57.907z M397.945,50.449h14.587c4.714,0,8.457-1.177,11.245-3.524s4.18-5.489,4.18-9.42
		c0-4.286-1.328-7.569-3.981-9.852c-2.655-2.284-6.485-3.444-11.493-3.474h-14.537V50.449z"/>
	<path fill="#5D5F66" d="M471.567,86.835c-7.249,0-13.153-2.287-17.702-6.863c-4.55-4.576-6.824-10.697-6.824-18.36v-1.617
		c0-5.096,1.017-9.648,3.043-13.657c2.026-4.006,4.862-7.141,8.505-9.404c3.642-2.263,7.592-3.397,11.842-3.397
		c6.956,0,12.36,2.204,16.219,6.604c3.859,4.402,5.785,10.703,5.785,18.904v3.661h-36.246c0.133,5.065,1.673,9.161,4.624,12.279
		c2.954,3.12,6.703,4.682,11.25,4.682c3.232,0,5.965-0.636,8.208-1.903c2.242-1.268,4.204-2.945,5.887-5.034l5.585,4.179
		C487.259,83.526,480.536,86.835,471.567,86.835z M470.431,40.754c-3.69,0-6.792,1.294-9.294,3.875
		c-2.509,2.581-4.058,6.197-4.648,10.851h26.8v-0.662c-0.262-4.467-1.519-7.926-3.758-10.38
		C477.29,41.984,474.254,40.754,470.431,40.754z"/>
	<path fill="#5D5F66" d="M534.165,72.253c0-2.377-0.93-4.22-2.79-5.536c-1.865-1.314-5.111-2.443-9.744-3.396
		c-4.63-0.949-8.305-2.09-11.027-3.421c-2.717-1.33-4.728-2.911-6.03-4.747c-1.301-1.838-1.954-4.021-1.954-6.556
		c0-4.212,1.855-7.776,5.563-10.69c3.71-2.917,8.448-4.371,14.217-4.371c6.063,0,10.985,1.505,14.759,4.513
		c3.773,3.009,5.66,6.857,5.66,11.544h-9.195c0-2.406-1.063-4.48-3.188-6.224c-2.128-1.739-4.808-2.615-8.036-2.615
		c-3.327,0-5.934,0.698-7.813,2.092c-1.88,1.394-2.82,3.216-2.82,5.463c0,2.122,0.876,3.723,2.623,4.797
		c1.745,1.076,4.903,2.106,9.467,3.089c4.566,0.983,8.265,2.153,11.102,3.518c2.834,1.361,4.937,2.998,6.305,4.914
		c1.366,1.916,2.052,4.253,2.052,7.008c0,4.593-1.913,8.273-5.736,11.045c-3.825,2.772-8.785,4.155-14.88,4.155
		c-4.288,0-8.08-0.729-11.376-2.184c-3.297-1.457-5.876-3.493-7.738-6.104c-1.862-2.614-2.795-5.439-2.795-8.482h9.147
		c0.165,2.945,1.393,5.283,3.686,7.008c2.292,1.729,5.315,2.592,9.076,2.592c3.457,0,6.234-0.676,8.328-2.02
		C533.119,76.297,534.165,74.502,534.165,72.253z"/>
	<path fill="#5D5F66" d="M577.429,86.835c-7.25,0-13.151-2.287-17.7-6.863c-4.548-4.576-6.822-10.697-6.822-18.36v-1.617
		c0-5.096,1.011-9.648,3.041-13.657c2.028-4.006,4.862-7.141,8.503-9.404c3.644-2.263,7.591-3.397,11.84-3.397
		c6.957,0,12.364,2.204,16.22,6.604c3.858,4.402,5.786,10.703,5.786,18.904v3.661h-36.244c0.132,5.065,1.673,9.161,4.626,12.279
		c2.948,3.12,6.697,4.682,11.246,4.682c3.232,0,5.964-0.636,8.206-1.903c2.243-1.268,4.204-2.945,5.888-5.034l5.586,4.179
		C593.118,83.526,586.397,86.835,577.429,86.835z M576.29,40.754c-3.69,0-6.789,1.294-9.294,3.875
		c-2.503,2.581-4.054,6.197-4.645,10.851h26.797v-0.662c-0.263-4.467-1.518-7.926-3.757-10.38
		C583.151,41.984,580.115,40.754,576.29,40.754z"/>
	<path fill="#5D5F66" d="M641.906,85.887c-0.527-1.014-0.958-2.819-1.283-5.417c-4.255,4.246-9.33,6.365-15.233,6.365
		c-5.271,0-9.599-1.431-12.978-4.299c-3.379-2.865-5.069-6.499-5.069-10.901c0-5.353,2.12-9.508,6.357-12.47
		c4.232-2.962,10.19-4.44,17.871-4.44h8.899v-4.041c0-3.069-0.954-5.517-2.865-7.338c-1.912-1.822-4.731-2.731-8.456-2.731
		c-3.264,0-6,0.792-8.208,2.374c-2.209,1.584-3.314,3.503-3.314,5.75h-9.194c0-2.567,0.947-5.042,2.843-7.435
		c1.895-2.39,4.464-4.282,7.712-5.676c3.247-1.391,6.816-2.09,10.707-2.09c6.164,0,10.992,1.481,14.484,4.443
		c3.496,2.962,5.307,7.038,5.439,12.229v23.66c0,4.72,0.629,8.47,1.88,11.259v0.76H641.906z M626.729,79.187
		c2.867,0,5.586-0.713,8.156-2.136c2.573-1.426,4.436-3.276,5.586-5.561V60.946h-7.167c-11.21,0-16.813,3.152-16.813,9.454
		c0,2.755,0.957,4.908,2.871,6.459C621.272,78.41,623.727,79.187,626.729,79.187z"/>
	<path fill="#5D5F66" d="M689.818,42.373c-1.381-0.222-2.884-0.335-4.5-0.335c-5.997,0-10.069,2.455-12.21,7.365v36.484h-9.147
		V34.486h8.9l0.148,5.937c2.996-4.59,7.252-6.887,12.755-6.887c1.778,0,3.131,0.221,4.054,0.665V42.373z"/>
	<path fill="#5D5F66" d="M718.747,79.665c3.26,0,6.11-0.953,8.553-2.852c2.439-1.899,3.791-4.276,4.054-7.128h8.655
		c-0.167,2.945-1.222,5.75-3.169,8.411c-1.943,2.657-4.538,4.78-7.784,6.365c-3.25,1.58-6.688,2.373-10.309,2.373
		c-7.287,0-13.08-2.334-17.381-7.007c-4.304-4.67-6.454-11.059-6.454-19.166v-1.474c0-5.005,0.954-9.455,2.869-13.349
		c1.908-3.895,4.653-6.917,8.23-9.073c3.576-2.153,7.807-3.229,12.682-3.229c6.001,0,10.985,1.729,14.957,5.178
		c3.976,3.45,6.089,7.93,6.358,13.444h-8.655c-0.263-3.327-1.572-6.055-3.93-8.194c-2.357-2.139-5.265-3.209-8.73-3.209
		c-4.646,0-8.249,1.611-10.803,4.824c-2.555,3.212-3.831,7.862-3.831,13.941v1.665c0,5.921,1.27,10.484,3.806,13.681
		C710.405,78.063,714.032,79.665,718.747,79.665z"/>
	<path fill="#5D5F66" d="M759.44,40.708c4.054-4.781,9.324-7.171,15.82-7.171c11.304,0,17.011,6.128,17.106,18.384v33.967h-9.148
		V51.873c-0.031-3.704-0.913-6.446-2.645-8.217c-1.728-1.775-4.425-2.661-8.085-2.661c-2.967,0-5.568,0.759-7.81,2.279
		c-2.241,1.518-3.986,3.518-5.239,5.984v36.628h-9.147V12.919h9.147V40.708z"/>
</g>
</svg>
