<svg width="141" height="24" viewBox="0 0 141 24" fill="none" xmlns="http://www.w3.org/2000/svg">
<path d="M131.339 0.982422H135.159L131.488 22.6832H127.668L131.339 0.982422Z" fill="#14151C"/>
<path d="M115.5 22.6832L122.305 0.982422H127.409L127.021 22.6832H123.303L123.661 16.6058L120.192 19.5208L119.352 22.6832H115.5ZM121.397 15.162L123.833 13.0926L124.574 4.86325H124.031L121.397 15.162Z" fill="#14151C"/>
<path d="M16.9252 1L15.5332 9.26295L11.4437 12.7508L13.4216 1H9.45874L5.79297 22.6737H9.75702L10.775 16.678L14.8775 13.163L13.2595 22.6737H17.2235L20.8893 1H16.9252Z" fill="#14151C"/>
<path d="M26.3129 13.2141L24.5954 14.7624C23.3171 15.9078 22.6448 16.9605 22.498 17.8282C22.3572 18.665 22.6235 19.2833 23.336 19.2833C24.2332 19.2833 24.9896 18.4786 25.5542 17.7035L26.3129 13.2141ZM24.7724 22.6897L25.5104 20.5224H25.1387C24.4652 21.3901 23.2023 22.9995 21.3759 22.9995C19.3317 22.9995 18.4582 21.3901 18.8299 19.1907C19.2276 16.8371 20.5071 15.1352 23.0307 13.0284L26.8882 9.80837L26.9616 9.37517C27.203 7.9509 26.9249 7.20792 26.0892 7.20792C25.2536 7.20792 24.7256 7.9509 24.4842 9.37517L24.1433 11.3881H20.2727L20.4669 10.2428C21.0741 6.65129 23.3715 4.4211 26.5603 4.4211C29.7491 4.4211 31.2925 6.65006 30.6806 10.2737L28.5808 22.6897H24.7724Z" fill="#14151C"/>
<path d="M29.8885 22.6891L32.9251 4.73088H36.7957L36.0677 6.83642H36.4394C37.6668 5.25789 38.9842 4.4211 40.3786 4.4211C41.9268 4.4211 43.3531 5.69109 42.7672 9.15795L40.4792 22.6885H36.6086L38.7025 10.3033C38.9073 9.09624 38.7286 8.32116 37.861 8.32116C37.0561 8.32116 36.3932 9.12586 35.9482 9.74543L33.7596 22.6885L29.8885 22.6891Z" fill="#14151C"/>
<path d="M50.8199 9.34473C50.5796 8.57089 50.115 8.01303 49.4036 8.01303C48.5052 8.01303 47.9667 9.00409 47.7418 10.3358L46.6469 16.8067C46.422 18.1384 46.6256 19.1294 47.524 19.1294C48.2365 19.1294 48.8875 18.5728 49.3906 17.7977L50.8199 9.34473ZM52.4326 22.6895L48.562 22.6901L49.1917 20.6154H48.8201C47.7228 21.978 46.7144 22.9999 45.1969 22.9999C43.0604 22.9999 41.9147 20.6154 42.9776 14.3309L43.1871 13.0918C44.25 6.80599 46.0776 4.42275 48.4307 4.42275C49.7007 4.42275 50.4772 5.32125 50.9554 6.34316H51.3271L52.2278 1.01513H56.0984L52.4326 22.6895Z" fill="#14151C"/>
<path d="M65.3569 10.8018L61.4863 10.8012L61.7739 9.098C61.9681 7.95266 61.7893 7.17882 60.8909 7.17882C60.2092 7.17882 59.744 7.73668 59.6493 8.2933C59.4871 9.25351 59.9346 9.90269 60.6589 10.9258L62.7836 13.9286C63.6784 15.2295 64.5011 16.592 64.1555 18.6346C63.7211 21.2042 61.3727 23 58.494 23C55.6154 23 53.5996 21.3585 54.1761 17.9534L54.4377 16.4057H58.3082L57.978 18.3569C57.7898 19.4714 58.1484 20.2761 58.9853 20.2761C59.7594 20.2761 60.1736 19.6566 60.2837 19.0061C60.4352 18.1076 59.957 17.4585 59.2575 16.4674L57.1648 13.4646C56.296 12.1946 55.555 10.895 55.9066 8.8203C56.2676 6.68391 58.4147 4.42409 61.4189 4.42409C64.423 4.42409 66.0848 6.49878 65.577 9.50158L65.3569 10.8018Z" fill="#14151C"/>
<path d="M95.5044 22.6901L93.1194 14.6394H92.7477L91.3865 22.6901H87.5159L91.1805 1.01513H95.0523L93.2247 11.8218H93.5964L98.0777 4.7313H102.228L96.9366 13.1214L99.8709 22.6901H95.5044Z" fill="#14151C"/>
<path d="M104.474 12.3163H107.385L107.877 9.40602C108.091 8.13603 107.816 7.20792 106.794 7.20792C105.773 7.20792 105.182 8.13727 104.967 9.40602L104.474 12.3163ZM104.029 14.9488L103.511 18.0145C103.296 19.2845 103.572 20.2127 104.595 20.2127C105.618 20.2127 106.207 19.2833 106.422 18.0145L106.69 16.436H110.84C110.217 20.1201 107.469 22.9995 104.125 22.9995C100.781 22.9995 99.0057 20.4916 100.053 14.2984L100.252 13.1222C101.3 6.92899 103.923 4.4211 107.266 4.4211C110.61 4.4211 112.447 6.92899 111.4 13.1222L111.091 14.9488H104.029Z" fill="#14151C"/>
<path d="M64.3332 22.6889L67.999 1.01513H71.8695L70.9427 6.49497H71.3144C72.5501 5.22498 73.6782 4.42028 75.0713 4.42028C76.6195 4.42028 77.7985 5.69027 77.2114 9.15714L74.9234 22.6876H71.0528L73.194 10.0235C73.3988 8.8165 73.2201 8.04142 72.3525 8.04142C71.5476 8.04142 70.8847 8.84612 70.4397 9.46568L68.2038 22.6889H64.3332Z" fill="#14151C"/>
<path d="M83.9401 13.2141L82.2226 14.7624C80.9443 15.9078 80.2708 16.9605 80.1252 17.8282C79.9843 18.665 80.2507 19.2833 80.9632 19.2833C81.8616 19.2833 82.6168 18.4786 83.1814 17.7035L83.9401 13.2141ZM82.3996 22.6897L83.1376 20.5224H82.7659C82.0924 21.3901 80.8295 22.9995 79.0031 22.9995C76.9589 22.9995 76.0854 21.3901 76.4571 19.1907C76.8548 16.8371 78.1343 15.1352 80.6578 13.0284L84.5154 9.80837L84.5887 9.37517C84.829 7.9509 84.5521 7.20792 83.7164 7.20792C82.8807 7.20792 82.3516 7.9509 82.1114 9.37517L81.7705 11.3881H77.8999L78.0941 10.2428C78.7013 6.65129 80.9987 4.4211 84.1875 4.4211C87.3762 4.4211 88.9197 6.65006 88.3078 10.2737L86.208 22.6897H82.3996Z" fill="#14151C"/>
</svg>
