<?xml version="1.0" encoding="UTF-8" standalone="no"?>
<!-- Generator: Adobe Illustrator 27.5.0, SVG Export Plug-In . SVG Version: 6.00 Build 0)  -->

<svg
   version="1.1"
   id="Layer_1"
   x="0px"
   y="0px"
   viewBox="0 0 300 156"
   xml:space="preserve"
   sodipodi:docname="icml-2024-jane-street.svg"
   width="300"
   height="156"
   inkscape:version="1.2.2 (b0a84865, 2022-12-01)"
   xmlns:inkscape="http://www.inkscape.org/namespaces/inkscape"
   xmlns:sodipodi="http://sodipodi.sourceforge.net/DTD/sodipodi-0.dtd"
   xmlns="http://www.w3.org/2000/svg"
   xmlns:svg="http://www.w3.org/2000/svg"><defs
   id="defs50" /><sodipodi:namedview
   id="namedview48"
   pagecolor="#ffffff"
   bordercolor="#000000"
   borderopacity="0.25"
   inkscape:showpageshadow="2"
   inkscape:pageopacity="0.0"
   inkscape:pagecheckerboard="0"
   inkscape:deskcolor="#d1d1d1"
   showgrid="false"
   inkscape:zoom="3.51"
   inkscape:cx="153.84615"
   inkscape:cy="156.12536"
   inkscape:window-width="1858"
   inkscape:window-height="1224"
   inkscape:window-x="0"
   inkscape:window-y="25"
   inkscape:window-maximized="0"
   inkscape:current-layer="Layer_1" />
<style
   type="text/css"
   id="style9">
	.st0{fill:#010101;}
</style>


<g
   id="g228"
   transform="translate(0.56980057,-74.074074)"><g
     id="g33">
	<path
   class="st0"
   d="m 172.35,132.21 v -2.13 c 0,-1.81 -1.04,-2.9 -3.35,-2.9 -2.31,0 -4.76,0.95 -7.75,2.4 l -2.36,-4.89 c 3.26,-1.63 7.07,-2.76 10.38,-2.76 6.98,0 9.7,3.4 9.7,8.38 v 10.15 c 0,1.31 0.77,1.9 1.99,1.9 v 4.58 c -4.58,0 -6.48,-0.68 -7.84,-2.99 -2.04,2.18 -4.3,3.4 -7.57,3.4 -4.26,0 -7.25,-2.58 -7.25,-6.43 0,-5.31 5.03,-8.07 14.05,-8.71 z m -4.62,10.38 c 2.04,0 3.58,-0.86 4.62,-2.04 v -4.67 c -3.76,0.23 -7.43,1.18 -7.43,4.26 0,1.45 1.13,2.45 2.81,2.45 z"
   id="path11" />
	<path
   class="st0"
   d="m 185.06,122.47 h 6.25 l 0.32,2.81 c 1.77,-1.86 4.35,-3.4 7.39,-3.4 5.44,0 7.75,3.35 7.75,8.84 v 16.09 h -6.66 v -16.27 c 0,-2.17 -0.91,-3.67 -3.17,-3.67 -2.04,0 -3.81,1.04 -5.26,2.85 v 17.08 h -6.62 z"
   id="path13" />
	<g
   id="g17">
		<path
   class="st0"
   d="m 146.86,115.08 v 21.11 c 0,3.26 -1.59,5.12 -4.35,5.12 -1.85,0 -3.31,-0.91 -4.45,-2.45 l -4.55,4.12 c 2.34,2.83 5.52,4.36 9.36,4.36 6.62,0 10.83,-3.76 10.83,-11.01 v -21.25 z"
   id="path15" />
	</g>
	<path
   class="st0"
   d="m 146.15,167.39 c -3.48,-0.88 -6.48,-1.64 -6.48,-4.23 0,-2.16 2.06,-3.61 5.12,-3.61 2.88,0 5.84,0.7 8.58,2.04 l 2.39,-5.07 c -3.75,-1.75 -7.44,-2.6 -11.28,-2.6 -6.82,0 -11.58,3.84 -11.58,9.33 0,6.98 5.72,8.46 10.76,9.78 3.53,0.92 6.59,1.71 6.59,4.36 0,2.32 -2.04,3.7 -5.44,3.7 -2.95,0 -6.28,-1 -9.38,-2.82 l -3.09,5.06 c 3.39,2.06 8.27,3.39 12.51,3.39 7.51,0 12.18,-3.61 12.18,-9.43 -0.01,-7.16 -6.04,-8.68 -10.88,-9.9 z"
   id="path19" />
	<path
   class="st0"
   d="m 162.38,166.56 h -3.85 v -4.71 h 3.85 v -6.07 h 6.66 v 6.07 h 5.45 v 4.71 h -5.45 v 12.1 c 0,1.81 0.68,2.72 2.22,2.72 1.22,0 2.36,-0.41 3.31,-1.09 l 2.45,3.99 c -1.86,1.45 -4.44,2.45 -7.11,2.45 -5.08,0 -7.52,-2.49 -7.52,-7.93 v -12.24 z"
   id="path21" />
	<path
   class="st0"
   d="m 180.04,161.84 h 6.12 l 0.45,3.76 c 1.86,-3.26 4.17,-4.44 6.93,-4.44 1.13,0 2.18,0.18 2.99,0.5 l -0.95,6.07 c -0.86,-0.32 -1.9,-0.54 -3.26,-0.54 -2.49,0 -4.17,1.54 -5.66,4.35 v 14.63 h -6.62 z"
   id="path23" />
	<path
   class="st0"
   d="m 251.12,166.56 h -3.85 v -4.71 h 3.85 v -6.07 h 6.66 v 6.07 h 5.44 v 4.71 h -5.44 v 12.1 c 0,1.81 0.68,2.72 2.22,2.72 1.22,0 2.36,-0.41 3.31,-1.09 l 2.45,3.99 c -1.86,1.45 -4.44,2.45 -7.11,2.45 -5.08,0 -7.52,-2.49 -7.52,-7.93 v -12.24 z"
   id="path25" />
	<path
   class="st0"
   d="m 222.94,121.82 c -6.75,0 -12.19,4.8 -12.19,12.6 0,8.16 5.07,12.91 12.23,12.91 3.62,0 7.02,-1.09 10.01,-3.17 l -2.77,-4.21 c -2.04,1.27 -4.3,2.08 -6.75,2.08 -3.36,0 -5.28,-1.72 -5.85,-5.18 h 15.69 c 0.18,-1.04 0.45,-2.12 0.45,-3.93 0.01,-6.52 -3.84,-11.1 -10.82,-11.1 z m 0.18,4.81 c 3.17,0 4.35,2.36 4.35,5.44 h -9.83 c 0.63,-3.54 2.76,-5.44 5.48,-5.44 z"
   id="path27" />
	<path
   class="st0"
   d="m 234.52,161.21 c -6.75,0 -12.19,4.8 -12.19,12.6 0,8.15 5.08,12.91 12.23,12.91 3.62,0 7.02,-1.09 10.01,-3.17 l -2.76,-4.21 c -2.04,1.27 -4.3,2.09 -6.75,2.09 -3.36,0 -5.28,-1.72 -5.85,-5.18 h 15.69 c 0.18,-1.04 0.45,-2.13 0.45,-3.93 0,-6.53 -3.85,-11.11 -10.83,-11.11 z m 0.18,4.8 c 3.17,0 4.35,2.36 4.35,5.44 h -9.83 c 0.64,-3.53 2.77,-5.44 5.48,-5.44 z"
   id="path29" />
	<path
   class="st0"
   d="m 209.09,161.21 c -6.75,0 -12.19,4.8 -12.19,12.6 0,8.15 5.07,12.91 12.23,12.91 3.62,0 7.02,-1.09 10.01,-3.17 l -2.76,-4.21 c -2.04,1.27 -4.3,2.09 -6.75,2.09 -3.36,0 -5.28,-1.72 -5.85,-5.18 h 15.69 c 0.18,-1.04 0.45,-2.13 0.45,-3.93 0,-6.54 -3.85,-11.11 -10.83,-11.11 z m 0.18,4.8 c 3.17,0 4.35,2.36 4.35,5.44 h -9.83 c 0.63,-3.53 2.76,-5.44 5.48,-5.44 z"
   id="path31" />
</g><g
     id="g41">
	<path
   class="st0"
   d="m 36.51,169.19 c 6.53,11.13 18.62,18.61 32.43,18.57 20.65,-0.06 37.41,-16.9 37.36,-37.56 -0.06,-20.65 -16.91,-37.41 -37.56,-37.35 -20.65,0.06 -37.41,16.9 -37.35,37.56 0.01,2.51 0.27,4.96 0.75,7.34 0.08,0.31 0.39,0.47 0.69,0.4 l 5.21,-1.3 c 0.3,-0.08 0.51,-0.37 0.44,-0.68 v 0 c -0.36,-1.87 -0.55,-3.8 -0.56,-5.77 -0.05,-17.05 13.79,-30.97 30.84,-31.01 17.05,-0.05 30.97,13.79 31.01,30.84 0.05,17.05 -13.79,30.97 -30.85,31.01 -11.29,0.03 -21.2,-6.03 -26.63,-15.08 v 0 c -0.15,-0.27 -0.48,-0.4 -0.77,-0.25 l -4.77,2.52 c -0.28,0.13 -0.4,0.49 -0.24,0.76 z"
   id="path35" />
	<path
   class="st0"
   d="m 88.55,158.39 4.76,2.55 c 0.28,0.15 0.66,0.06 0.77,-0.24 1.31,-3.14 2.04,-6.58 2.07,-10.18 0.12,-15.06 -12.03,-27.42 -27.09,-27.55 h -0.23 c -14.94,0 -27.19,12.15 -27.32,27.09 -0.13,15.06 12.03,27.42 27.09,27.55 h 0.23 c 7.13,0 13.65,-2.78 18.53,-7.3 0.24,-0.21 0.29,-0.58 0.07,-0.82 l -4.06,-3.66 c -0.23,-0.21 -0.59,-0.17 -0.81,0.03 v 0 c -3.67,3.24 -8.48,5.22 -13.73,5.22 h -0.18 c -11.46,-0.1 -20.71,-9.5 -20.62,-20.97 0.1,-11.37 9.42,-20.62 20.79,-20.62 H 69 c 11.46,0.1 20.71,9.5 20.62,20.96 -0.02,2.51 -0.5,4.91 -1.34,7.13 v 0 c -0.12,0.34 -0.01,0.65 0.27,0.81 z"
   id="path37" />
	<path
   class="st0"
   d="m 96.34,111.49 c -0.25,-0.17 -0.61,-0.12 -0.78,0.14 l -3.04,4.42 c -0.18,0.26 -0.15,0.62 0.11,0.8 v 0 c 10.46,7.45 17.3,19.67 17.29,33.46 0,22.64 -18.43,41.06 -41.07,41.06 -22.65,0 -41.07,-18.42 -41.07,-41.07 0,-22.64 18.42,-41.06 41.07,-41.06 4.93,0 9.65,0.88 14.04,2.48 v 0 c 0.28,0.11 0.61,-0.03 0.73,-0.33 l 1.92,-5.04 c 0.11,-0.28 -0.03,-0.6 -0.31,-0.73 -5.11,-1.88 -10.62,-2.92 -16.38,-2.92 -26.24,-0.01 -47.6,21.34 -47.6,47.59 0,26.24 21.35,47.6 47.59,47.6 26.24,0 47.6,-21.35 47.6,-47.59 0,-16 -7.94,-30.18 -20.1,-38.81 z"
   id="path39" />
</g><g
     id="g45">
	<path
   class="st0"
   d="m 278.63,156.87 c 0,2.86 -2.25,5.11 -5.17,5.11 -2.89,0 -5.2,-2.25 -5.2,-5.11 0,-2.8 2.31,-5.05 5.2,-5.05 2.92,0 5.17,2.25 5.17,5.05 z m -9.08,0 c 0,2.25 1.66,4.03 3.94,4.03 2.21,0 3.85,-1.79 3.85,-4 0,-2.25 -1.63,-4.06 -3.88,-4.06 -2.25,0 -3.91,1.81 -3.91,4.03 z m 3.11,2.64 h -1.17 v -5.05 c 0.46,-0.09 1.11,-0.15 1.94,-0.15 0.95,0 1.38,0.15 1.75,0.37 0.28,0.22 0.49,0.62 0.49,1.11 0,0.55 -0.43,0.98 -1.05,1.17 v 0.06 c 0.49,0.18 0.77,0.55 0.92,1.23 0.15,0.77 0.25,1.08 0.37,1.26 h -1.26 c -0.15,-0.18 -0.25,-0.65 -0.4,-1.23 -0.09,-0.55 -0.4,-0.8 -1.05,-0.8 h -0.55 v 2.03 z m 0.03,-2.86 h 0.55 c 0.65,0 1.17,-0.22 1.17,-0.74 0,-0.46 -0.34,-0.77 -1.08,-0.77 -0.31,0 -0.52,0.03 -0.65,0.06 v 1.45 z"
   id="path43" />
</g></g>
</svg>
