<svg width="681" height="113" viewBox="0 0 681 113" fill="none" xmlns="http://www.w3.org/2000/svg">
<g clip-path="url(#clip0_8149_155)">
<path d="M0 3.99512H24.4416V51.2313L69.53 3.99512H99.0575L53.8119 49.8449L101.123 112.07H71.753L37.3079 66.0452L24.4416 79.0032V112.037H0V3.99512Z" fill="#007694"/>
<path d="M115.893 4.02795H199.704V25.1734H140.199V47.094H192.585V68.2395H140.177V90.9242H200.501V112.07H115.893V4.02795Z" fill="#007694"/>
<path d="M222.301 3.99515H244.755L296.849 70.521V3.99515H320.988V112.07H300.184L246.372 43.3605V112.037H222.301V3.9624V3.99515Z" fill="#007694"/>
<path d="M340.024 94.8207L354.463 78.0091C364.466 86.0328 374.952 91.109 387.65 91.109C397.642 91.109 403.671 87.2446 403.671 80.9238V80.6291C403.671 74.6031 399.865 71.5137 381.296 66.8851C358.909 61.3285 344.47 55.3135 344.47 33.8514V33.5457C344.47 13.8958 360.66 0.981445 383.35 0.981445C399.551 0.981445 413.36 5.95942 424.633 14.6927L411.935 32.596C402.088 25.9587 392.399 21.9523 383.036 21.9523C373.672 21.9523 368.755 26.1115 368.755 31.3624V31.6681C368.755 38.7748 373.515 41.0891 392.725 45.8597C415.269 51.5691 427.967 59.4399 427.967 78.2711V78.5768C427.967 100.039 411.126 112.069 387.167 112.069C369.807 112.148 353.025 106.008 340.024 94.8207V94.8207Z" fill="#007694"/>
<path d="M449.248 3.99512H473.69V46.7337H518.778V3.99512H543.22V112.07H518.778V68.6652H473.69V112.037H449.248V3.99512Z" fill="#007694"/>
<path d="M677.309 56.0346C677.319 64.9161 675.204 73.6711 671.141 81.5686L670.693 82.431L666.676 80.335C666.839 80.0512 666.992 79.7564 667.134 79.4726C671.66 70.6118 673.521 60.6295 672.492 50.7333C671.463 40.8371 667.589 31.4511 661.337 23.7105L654.601 29.2453C654.404 28.9942 654.197 28.7431 653.99 28.5029C650.319 24.1358 645.811 20.548 640.732 17.9512C635.652 15.3544 630.104 13.8013 624.414 13.3834L623.737 24.3C623.41 24.3 623.082 24.3 622.766 24.3C622.253 24.3 621.761 24.3 621.259 24.3C615.829 24.2979 610.489 25.6866 605.748 28.3336C601.006 30.9807 597.022 34.7979 594.175 39.4214C591.328 44.0449 589.713 49.3205 589.483 54.7453C589.254 60.1702 590.418 65.5634 592.864 70.4108C595.31 75.2583 598.958 79.3984 603.458 82.4365C607.959 85.4745 613.163 87.3093 618.573 87.7658C623.984 88.2224 629.422 87.2855 634.368 85.0445C639.314 82.8035 643.604 79.333 646.828 74.964L647.395 74.178L656.326 80.5752L663.422 85.6514L667.101 88.2823C666.927 88.5443 666.73 88.8172 666.545 89.0683C660.896 96.8079 653.356 102.97 644.647 106.965C635.937 110.961 626.348 112.656 616.797 111.89C607.245 111.124 598.049 107.921 590.088 102.588C582.127 97.2554 575.667 89.9704 571.324 81.4292C566.982 72.888 564.902 63.376 565.284 53.8019C565.666 44.2279 568.496 34.9117 573.505 26.7433C578.514 18.575 585.534 11.8275 593.895 7.14536C602.255 2.46324 611.677 0.00298555 621.259 -0.000366211C622.274 -0.000366211 623.279 -0.000366211 624.272 0.0869667L625.255 0.14155C632.758 0.681018 640.077 2.72598 646.773 6.15448C653.469 9.58298 659.406 14.3248 664.23 20.0971C664.438 20.3482 664.645 20.5884 664.841 20.8395C672.912 30.7935 677.314 43.2201 677.309 56.0346V56.0346Z" fill="#007694"/>
</g>
<defs>
<clipPath id="clip0_8149_155">
<rect width="680.491" height="112.081" fill="white"/>
</clipPath>
</defs>
</svg>
