<?xml version="1.0" encoding="UTF-8"?>
<svg id="Layer_1" xmlns="http://www.w3.org/2000/svg" version="1.1" viewBox="0 0 250 150">
  <!-- Generator: Adobe Illustrator 29.6.1, SVG Export Plug-In . SVG Version: 2.1.1 Build 9)  -->
  <defs>
    <style>
      .st0 {
        fill: #010101;
      }

      .st1 {
        fill: #231f20;
      }

      .st2 {
        fill: #fff;
        fill-opacity: 0;
      }
    </style>
  </defs>
  <path class="st2" d="M68.6,123.4H2.8V20.3h100v103.1h-34.2M30.9,60h59.9c-12.8-12.8-25.7-25.6-38.2-38.2-12.7,12.6-25.5,25.4-38.4,38.2h16.8M79.2,80.6h-15.6v38.1c12.6-12.6,25.4-25.3,38.3-38.1h-22.7M30.5,80.6H4.5c12.8,12.8,25.5,25.5,38.2,38.1v-38.1h-12.1Z"/>
  <path class="st0" d="M30.8,60H14.2c12.9-12.8,25.7-25.6,38.4-38.2,12.6,12.6,25.4,25.4,38.2,38.2H30.8Z"/>
  <path class="st0" d="M79.3,80.6h22.6c-12.8,12.8-25.6,25.5-38.3,38.1v-38.1h15.7Z"/>
  <path class="st0" d="M30.6,80.6h12v38.1c-12.7-12.7-25.4-25.4-38.2-38.1h26.2Z"/>
  <g>
    <path class="st1" d="M120.8,20.3h12.2v2.3h-4.8v12.8h-2.6v-12.8h-4.8v-2.3Z"/>
    <path class="st1" d="M134.9,20.3h2.4v2.3h-2.4v-2.3ZM134.9,24.5h2.4v10.9h-2.4v-10.9Z"/>
    <path class="st1" d="M140.5,24.5h2.3v1.5h0c.3-.6.8-1.1,1.4-1.4.6-.3,1.3-.4,2-.4s1.6.2,2.3.5c.6.3,1.2.7,1.6,1.2.4.5.7,1.1,1,1.9.2.7.3,1.5.3,2.3s0,1.4-.3,2.1c-.2.7-.5,1.3-.9,1.8-.4.5-.9,1-1.5,1.3s-1.3.5-2.1.5-.7,0-1.1,0c-.4,0-.7-.2-1-.3-.3-.1-.6-.3-.9-.5s-.5-.5-.7-.8h0v5.5h-2.4v-15ZM148.9,30c0-.5,0-1-.2-1.4s-.3-.9-.6-1.2-.6-.6-1-.9-.8-.3-1.3-.3c-1,0-1.8.4-2.3,1.1-.5.7-.8,1.6-.8,2.8s0,1.1.2,1.5c.1.5.3.9.6,1.2.3.3.6.6,1,.8.4.2.8.3,1.3.3s1-.1,1.4-.3c.4-.2.7-.5.9-.9.2-.4.4-.8.5-1.2.1-.5.2-.9.2-1.4Z"/>
    <path class="st1" d="M152.6,24.5h1.8v-3.3h2.4v3.3h2.2v1.8h-2.2v5.8c0,.3,0,.5,0,.7,0,.2,0,.3.1.5s.2.2.3.3c.2,0,.4,0,.6,0s.3,0,.5,0c.2,0,.3,0,.5,0v1.9c-.3,0-.5,0-.8,0-.3,0-.5,0-.8,0-.6,0-1.1,0-1.5-.2s-.7-.3-.9-.5c-.2-.2-.4-.5-.4-.9,0-.4-.1-.8-.1-1.2v-6.4h-1.8v-1.8Z"/>
    <path class="st1" d="M161.2,24.5h2.3v2.1h0c0-.3.2-.6.4-.9.2-.3.5-.5.7-.8.3-.2.6-.4,1-.6s.7-.2,1.1-.2.5,0,.6,0c.1,0,.2,0,.3,0v2.3c-.2,0-.3,0-.5,0s-.3,0-.5,0c-.4,0-.8,0-1.2.2-.4.2-.7.4-.9.7-.3.3-.5.7-.6,1.2s-.2,1-.2,1.6v5.2h-2.4v-10.9Z"/>
    <path class="st1" d="M170.6,30.6c0,.4,0,.8.2,1.2.1.4.3.7.5,1,.2.3.5.5.9.7.4.2.8.3,1.3.3s1.3-.2,1.7-.5c.4-.3.8-.8,1-1.4h2.3c-.1.6-.3,1.1-.7,1.6-.3.5-.7.9-1.1,1.2-.4.3-.9.6-1.5.7-.5.2-1.1.2-1.7.2-.9,0-1.6-.1-2.3-.4s-1.2-.7-1.7-1.2c-.5-.5-.8-1.1-1-1.8-.2-.7-.3-1.5-.3-2.3s.1-1.5.4-2.2.6-1.3,1.1-1.8c.5-.5,1-.9,1.7-1.3.6-.3,1.4-.5,2.2-.5s1.6.2,2.3.5,1.3.8,1.7,1.4c.5.6.8,1.3,1,2,.2.8.3,1.6.2,2.4h-8ZM176.2,29c0-.4-.1-.7-.2-1.1-.1-.4-.3-.7-.5-.9-.2-.3-.5-.5-.8-.6-.3-.2-.7-.2-1.1-.2s-.8,0-1.2.2-.6.4-.9.6c-.2.3-.4.6-.6.9-.1.4-.2.7-.2,1.1h5.6Z"/>
    <path class="st1" d="M182.8,30.6c0,.4,0,.8.2,1.2.1.4.3.7.5,1,.2.3.5.5.9.7.4.2.8.3,1.3.3s1.3-.2,1.7-.5c.4-.3.8-.8,1-1.4h2.3c-.1.6-.3,1.1-.7,1.6-.3.5-.7.9-1.1,1.2-.4.3-.9.6-1.5.7-.5.2-1.1.2-1.7.2-.9,0-1.6-.1-2.3-.4s-1.2-.7-1.7-1.2c-.5-.5-.8-1.1-1-1.8-.2-.7-.3-1.5-.3-2.3s.1-1.5.4-2.2.6-1.3,1.1-1.8c.5-.5,1-.9,1.7-1.3.6-.3,1.4-.5,2.2-.5s1.6.2,2.3.5,1.3.8,1.7,1.4c.5.6.8,1.3,1,2,.2.8.3,1.6.2,2.4h-8ZM188.4,29c0-.4-.1-.7-.2-1.1-.1-.4-.3-.7-.5-.9-.2-.3-.5-.5-.8-.6-.3-.2-.7-.2-1.1-.2s-.8,0-1.2.2c-.3.1-.6.4-.9.6-.2.3-.4.6-.6.9-.1.4-.2.7-.2,1.1h5.6Z"/>
    <path class="st1" d="M126.3,47.6h2.8l5.8,15.1h-2.8l-1.4-4h-6l-1.4,4h-2.7l5.8-15.1ZM125.4,56.7h4.6l-2.3-6.5h0l-2.3,6.5Z"/>
    <path class="st1" d="M146.7,62.7h-2.3v-1.5h0c-.3.6-.8,1.1-1.4,1.4s-1.3.4-2,.4-1.6-.2-2.3-.5c-.6-.3-1.2-.7-1.6-1.2-.4-.5-.7-1.1-1-1.9-.2-.7-.3-1.5-.3-2.3s.1-1.8.4-2.6c.3-.7.6-1.3,1.1-1.8.4-.5,1-.8,1.5-1,.6-.2,1.2-.3,1.7-.3s.7,0,1,0c.4,0,.7.2,1,.3.3.1.6.3.9.5s.5.5.7.8h0v-5.6h2.4v15.1ZM138.3,57.4c0,.5,0,.9.2,1.4.1.5.3.9.5,1.2.2.4.6.6.9.8.4.2.8.3,1.4.3s1-.1,1.4-.3c.4-.2.7-.5,1-.9.2-.4.4-.8.5-1.2.1-.5.2-.9.2-1.4,0-1.2-.3-2.2-.8-2.8-.5-.7-1.3-1-2.2-1s-1,.1-1.4.3-.7.5-1,.9-.4.8-.5,1.3c-.1.5-.2,1-.2,1.4Z"/>
    <path class="st1" d="M148.7,51.8h2.6l2.8,8.4h0l2.7-8.4h2.5l-3.9,10.9h-2.7l-4-10.9Z"/>
    <path class="st1" d="M170.3,60.3c0,.3,0,.5.1.6s.2.2.5.2h.3c0,0,.2,0,.3,0v1.7c0,0-.2,0-.3,0-.1,0-.3,0-.4,0-.1,0-.3,0-.4,0-.1,0-.3,0-.4,0-.5,0-.9,0-1.2-.3s-.5-.5-.6-1c-.5.5-1.1.8-1.8,1-.7.2-1.4.3-2,.3s-1,0-1.4-.2-.8-.3-1.2-.6c-.3-.3-.6-.6-.8-1s-.3-.9-.3-1.4.1-1.2.4-1.6c.2-.4.6-.8,1-1,.4-.2.9-.4,1.4-.5s1-.2,1.5-.2c.4,0,.9-.1,1.2-.2.4,0,.7,0,1-.2.3,0,.5-.2.7-.4.2-.2.3-.4.3-.8s0-.6-.2-.8c-.1-.2-.3-.3-.5-.5-.2-.1-.5-.2-.7-.2-.3,0-.5,0-.8,0-.7,0-1.2.1-1.7.4-.4.3-.7.7-.7,1.3h-2.4c0-.7.2-1.3.5-1.8.3-.5.7-.8,1.1-1.1.5-.3,1-.5,1.6-.6s1.2-.2,1.8-.2,1.1,0,1.6.2c.5.1,1,.3,1.4.5.4.3.8.6,1,1s.4.9.4,1.5v5.6ZM167.9,57.2c-.4.2-.8.4-1.4.4-.5,0-1.1.1-1.6.2-.3,0-.5.1-.7.2-.2,0-.5.2-.6.3-.2.1-.3.3-.4.5-.1.2-.2.5-.2.8s0,.5.2.7c.2.2.3.3.6.4s.5.2.7.2.5,0,.7,0,.6,0,.9-.1.6-.2.9-.4.5-.4.7-.6c.2-.3.3-.6.3-1v-1.8Z"/>
    <path class="st1" d="M173.4,51.8h2.3v1.6h0c.4-.6.8-1,1.4-1.4s1.2-.5,2-.5c1.2,0,2.1.3,2.8.9.7.6,1,1.6,1,2.8v7.5h-2.4v-6.9c0-.9-.2-1.5-.5-1.9s-.9-.6-1.6-.6-.8,0-1.1.2-.6.4-.8.6c-.2.3-.4.6-.5.9-.1.4-.2.7-.2,1.1v6.4h-2.4v-10.9Z"/>
    <path class="st1" d="M193.3,55.5c0-.7-.4-1.2-.8-1.5-.4-.3-1-.5-1.7-.5s-.6,0-1,.2c-.4.1-.7.3-1,.6-.3.3-.5.7-.7,1.2-.2.5-.3,1.2-.3,2s0,.9.2,1.4c.1.5.3.9.5,1.2s.5.6.9.9c.4.2.8.3,1.3.3s1.3-.2,1.7-.7c.5-.4.7-1.1.9-1.8h2.4c-.2,1.4-.8,2.5-1.6,3.3-.9.8-2,1.1-3.4,1.1s-1.6-.1-2.3-.4c-.7-.3-1.2-.7-1.7-1.2-.5-.5-.8-1.1-1-1.8-.2-.7-.3-1.4-.3-2.2s.1-1.6.3-2.3c.2-.7.6-1.3,1-1.9.5-.5,1-.9,1.7-1.2.7-.3,1.5-.5,2.4-.5s1.2,0,1.8.2c.6.2,1.1.4,1.5.7.4.3.8.7,1.1,1.2.3.5.5,1.1.5,1.8h-2.4Z"/>
    <path class="st1" d="M200,57.9c0,.4,0,.8.2,1.2.1.4.3.7.5,1,.2.3.5.5.9.7.4.2.8.3,1.3.3s1.3-.2,1.7-.5c.4-.3.8-.8,1-1.4h2.3c-.1.6-.3,1.1-.7,1.6-.3.5-.7.9-1.1,1.2-.4.3-.9.6-1.5.7-.5.2-1.1.2-1.7.2-.9,0-1.6-.1-2.3-.4s-1.2-.7-1.7-1.2c-.5-.5-.8-1.1-1-1.8-.2-.7-.3-1.5-.3-2.3s.1-1.5.4-2.2.6-1.3,1.1-1.8,1-.9,1.7-1.3c.6-.3,1.4-.5,2.2-.5s1.6.2,2.3.5c.7.4,1.3.8,1.7,1.4.5.6.8,1.3,1,2,.2.8.3,1.6.2,2.4h-8ZM205.6,56.3c0-.4-.1-.7-.2-1.1-.1-.4-.3-.7-.5-.9s-.5-.5-.8-.6c-.3-.2-.7-.2-1.1-.2s-.8,0-1.2.2c-.3.1-.6.4-.9.6-.2.3-.4.6-.6.9s-.2.7-.2,1.1h5.6Z"/>
    <path class="st1" d="M220.6,62.7h-2.3v-1.5h0c-.3.6-.8,1.1-1.4,1.4s-1.3.4-2,.4-1.6-.2-2.3-.5c-.6-.3-1.2-.7-1.6-1.2-.4-.5-.7-1.1-1-1.9-.2-.7-.3-1.5-.3-2.3s.1-1.8.4-2.6c.3-.7.6-1.3,1.1-1.8.4-.5,1-.8,1.5-1,.6-.2,1.2-.3,1.7-.3s.7,0,1,0c.4,0,.7.2,1,.3.3.1.6.3.9.5s.5.5.7.8h0v-5.6h2.4v15.1ZM212.2,57.4c0,.5,0,.9.2,1.4.1.5.3.9.5,1.2.2.4.6.6.9.8.4.2.8.3,1.4.3s1-.1,1.4-.3c.4-.2.7-.5,1-.9.2-.4.4-.8.5-1.2.1-.5.2-.9.2-1.4,0-1.2-.3-2.2-.8-2.8-.5-.7-1.3-1-2.2-1s-1,.1-1.4.3c-.4.2-.7.5-1,.9-.2.4-.4.8-.5,1.3-.1.5-.2,1-.2,1.4Z"/>
    <path class="st1" d="M124,85c0,.6,0,1.1.3,1.5.2.4.5.7.8,1,.4.3.8.5,1.2.6.5.1,1,.2,1.5.2s1.1,0,1.5-.2c.4-.1.7-.3,1-.5.3-.2.4-.5.5-.7.1-.3.2-.6.2-.8,0-.6-.1-1-.4-1.3s-.5-.5-.9-.6c-.5-.2-1.2-.4-1.9-.6-.7-.2-1.6-.4-2.6-.7-.6-.2-1.2-.4-1.6-.7-.4-.3-.8-.6-1-.9-.3-.3-.4-.7-.5-1.1s-.2-.8-.2-1.2c0-.8.2-1.4.5-2,.3-.6.7-1,1.3-1.4.5-.4,1.1-.6,1.8-.8.7-.2,1.3-.3,2-.3s1.5.1,2.2.3,1.3.5,1.8.9.9.9,1.3,1.5c.3.6.5,1.3.5,2.1h-2.6c0-1-.4-1.7-1-2.1-.6-.4-1.3-.6-2.3-.6s-.6,0-1,0c-.3,0-.6.2-.9.3-.3.1-.5.3-.7.6-.2.3-.3.6-.3,1s.2,1,.5,1.3c.3.3.8.5,1.3.7,0,0,.3,0,.7.2.4.1.8.2,1.3.3s.9.3,1.4.4c.5.1.8.2,1,.3.5.2.9.4,1.3.6.4.3.7.6.9.9.2.3.4.7.5,1.1.1.4.2.8.2,1.2,0,.8-.2,1.6-.5,2.2-.3.6-.8,1.1-1.4,1.5-.6.4-1.2.7-1.9.8-.7.2-1.5.3-2.2.3s-1.7-.1-2.4-.3c-.8-.2-1.4-.5-2-1-.6-.4-1-1-1.4-1.7s-.5-1.5-.5-2.4h2.6Z"/>
    <path class="st1" d="M134.8,79.1h2.6l2.9,8.2h0l2.8-8.2h2.5l-4.3,11.5c-.2.5-.4,1-.6,1.4-.2.5-.4.8-.7,1.2-.3.3-.6.6-1,.8-.4.2-.9.3-1.6.3s-1.1,0-1.7-.1v-2c.2,0,.4,0,.6,0,.2,0,.4,0,.6,0,.3,0,.5,0,.7-.1.2,0,.3-.2.5-.3.1-.1.2-.3.3-.5,0-.2.2-.4.2-.6l.3-.8-4.1-10.9Z"/>
    <path class="st1" d="M149.3,86.5c0,.7.3,1.2.8,1.5.5.3,1,.4,1.7.4s.5,0,.8,0,.6-.1.8-.2c.3,0,.5-.2.6-.4.2-.2.2-.4.2-.8,0-.3-.1-.6-.3-.8-.2-.2-.5-.4-.8-.5-.3-.1-.7-.2-1.1-.3s-.9-.2-1.3-.3c-.5,0-.9-.2-1.3-.4-.4-.1-.8-.3-1.1-.6-.3-.2-.6-.5-.8-.9-.2-.4-.3-.8-.3-1.4s.1-1.1.4-1.5c.3-.4.7-.7,1.1-1s.9-.4,1.5-.5c.5,0,1.1-.1,1.6-.1s1.1,0,1.6.2c.5.1,1,.3,1.4.6.4.3.8.6,1,1,.3.4.4.9.5,1.6h-2.5c-.1-.6-.4-1-.8-1.2-.4-.2-.9-.3-1.4-.3s-.4,0-.6,0c-.2,0-.5,0-.7.2-.2,0-.4.2-.5.3-.1.1-.2.3-.2.6s.1.5.3.7c.2.2.5.3.8.5.3.1.7.2,1.1.3.4,0,.9.2,1.3.3.4,0,.9.2,1.3.4.4.1.8.3,1.1.6.3.2.6.5.8.9s.3.8.3,1.4-.1,1.2-.4,1.6c-.3.5-.7.8-1.2,1.1-.5.3-1,.5-1.6.6-.6.1-1.1.2-1.7.2s-1.3,0-1.9-.2c-.6-.2-1.1-.4-1.5-.7-.4-.3-.8-.7-1-1.2-.2-.5-.4-1-.4-1.7h2.4Z"/>
    <path class="st1" d="M157.7,79.1h1.8v-3.3h2.4v3.3h2.2v1.8h-2.2v5.8c0,.3,0,.5,0,.7,0,.2,0,.3.1.5,0,.1.2.2.3.3.2,0,.4,0,.6,0s.3,0,.5,0c.2,0,.3,0,.5,0v1.9c-.3,0-.5,0-.8,0s-.5,0-.8,0c-.6,0-1.1,0-1.5-.2-.4-.1-.7-.3-.9-.5s-.4-.5-.4-.9c0-.4-.1-.8-.1-1.2v-6.4h-1.8v-1.8Z"/>
    <path class="st1" d="M168.2,85.2c0,.4,0,.8.2,1.2.1.4.3.7.5,1,.2.3.5.5.9.7.4.2.8.3,1.3.3s1.3-.2,1.7-.5c.4-.3.8-.8,1-1.4h2.3c-.1.6-.3,1.1-.7,1.6-.3.5-.7.9-1.1,1.2-.4.3-.9.6-1.5.7-.5.2-1.1.2-1.7.2-.9,0-1.6-.1-2.3-.4-.7-.3-1.2-.7-1.7-1.2-.5-.5-.8-1.1-1-1.8-.2-.7-.3-1.5-.3-2.3s.1-1.5.4-2.2c.2-.7.6-1.3,1.1-1.8s1-.9,1.7-1.3c.6-.3,1.4-.5,2.2-.5s1.6.2,2.3.5c.7.4,1.3.8,1.7,1.4.5.6.8,1.3,1,2,.2.8.3,1.6.2,2.4h-8ZM173.8,83.6c0-.4-.1-.7-.2-1.1-.1-.4-.3-.7-.5-.9-.2-.3-.5-.5-.8-.6-.3-.2-.7-.2-1.1-.2s-.8,0-1.2.2c-.3.1-.6.4-.9.6-.2.3-.4.6-.6.9s-.2.7-.2,1.1h5.6Z"/>
    <path class="st1" d="M178.5,79.1h2.3v1.5h0c.2-.3.4-.5.6-.7.2-.2.4-.4.7-.6.3-.2.6-.3.9-.4.3,0,.7-.1,1.2-.1.7,0,1.3.1,1.9.4.6.3,1,.8,1.2,1.4.4-.6.9-1,1.4-1.3s1.2-.5,2-.5c1.2,0,2.1.3,2.7.8.6.6,1,1.5,1,2.8v7.5h-2.4v-6.4c0-.4,0-.8,0-1.2s-.1-.7-.2-.9c-.1-.3-.3-.5-.6-.6-.3-.1-.6-.2-1.1-.2-.8,0-1.4.3-1.8.8-.4.5-.5,1.2-.5,2.2v6.4h-2.4v-7c0-.8-.1-1.3-.4-1.7s-.8-.6-1.5-.6-.6,0-.9.2c-.3.1-.5.3-.8.5-.2.2-.4.5-.5.9s-.2.8-.2,1.2v6.5h-2.4v-10.9Z"/>
    <path class="st1" d="M199.1,86.5c0,.7.3,1.2.8,1.5.5.3,1,.4,1.7.4s.5,0,.8,0c.3,0,.6-.1.8-.2.3,0,.5-.2.6-.4s.2-.4.2-.8c0-.3-.1-.6-.3-.8-.2-.2-.5-.4-.8-.5-.3-.1-.7-.2-1.1-.3s-.9-.2-1.3-.3c-.5,0-.9-.2-1.3-.4-.4-.1-.8-.3-1.1-.6-.3-.2-.6-.5-.8-.9-.2-.4-.3-.8-.3-1.4s.1-1.1.4-1.5c.3-.4.7-.7,1.1-1s.9-.4,1.5-.5c.5,0,1.1-.1,1.6-.1s1.1,0,1.6.2c.5.1,1,.3,1.4.6.4.3.8.6,1,1,.3.4.4.9.5,1.6h-2.5c-.1-.6-.4-1-.8-1.2-.4-.2-.9-.3-1.4-.3s-.4,0-.6,0c-.2,0-.5,0-.7.2-.2,0-.4.2-.5.3s-.2.3-.2.6.1.5.3.7c.2.2.5.3.8.5.3.1.7.2,1.1.3.4,0,.9.2,1.3.3.4,0,.9.2,1.3.4.4.1.8.3,1.1.6.3.2.6.5.8.9s.3.8.3,1.4-.1,1.2-.4,1.6c-.3.5-.7.8-1.2,1.1-.5.3-1,.5-1.6.6-.6.1-1.1.2-1.7.2s-1.3,0-1.9-.2c-.6-.2-1.1-.4-1.5-.7-.4-.3-.8-.7-1-1.2-.2-.5-.4-1-.4-1.7h2.4Z"/>
    <path class="st1" d="M132.5,107.1c-.1-.4-.3-.8-.5-1.2-.2-.4-.5-.7-.8-1-.3-.3-.7-.5-1.1-.6-.4-.1-.9-.2-1.4-.2-.8,0-1.5.2-2.1.5-.6.3-1.1.8-1.4,1.3-.4.5-.6,1.2-.8,1.9-.2.7-.3,1.4-.3,2.1s0,1.4.3,2.1c.2.7.4,1.3.8,1.9.4.5.8,1,1.4,1.3.6.3,1.3.5,2.1.5s1.1-.1,1.6-.3c.5-.2.8-.5,1.2-.8.3-.4.6-.8.8-1.3s.3-1,.4-1.5h2.6c0,.9-.3,1.7-.6,2.5-.3.7-.8,1.4-1.3,1.9-.6.5-1.2,1-2,1.3-.8.3-1.6.4-2.5.4s-2.1-.2-3-.6c-.9-.4-1.7-1-2.3-1.7-.6-.7-1.1-1.6-1.4-2.5-.3-1-.5-2-.5-3.1s.2-2.1.5-3c.3-1,.8-1.8,1.4-2.5.6-.7,1.4-1.3,2.3-1.7.9-.4,1.9-.6,3-.6s1.6.1,2.4.3,1.4.6,2,1,1,1,1.4,1.6c.4.6.6,1.4.7,2.2h-2.6Z"/>
    <path class="st1" d="M142.6,117.6c-.9,0-1.7-.1-2.3-.4-.7-.3-1.3-.7-1.7-1.2-.5-.5-.8-1.1-1.1-1.8-.2-.7-.4-1.5-.4-2.3s.1-1.6.4-2.3c.2-.7.6-1.3,1.1-1.8.5-.5,1-.9,1.7-1.2.7-.3,1.5-.4,2.3-.4s1.7.1,2.3.4c.7.3,1.3.7,1.7,1.2s.8,1.1,1.1,1.8c.2.7.4,1.5.4,2.3s-.1,1.6-.4,2.3c-.2.7-.6,1.3-1.1,1.8-.5.5-1.1.9-1.7,1.2-.7.3-1.5.4-2.3.4ZM142.6,115.7c.5,0,1-.1,1.4-.3.4-.2.7-.5,1-.9.3-.4.4-.8.6-1.2.1-.5.2-.9.2-1.4s0-.9-.2-1.4c-.1-.5-.3-.9-.6-1.2-.3-.4-.6-.7-1-.9-.4-.2-.9-.3-1.4-.3s-1,.1-1.4.3c-.4.2-.7.5-1,.9-.3.4-.4.8-.6,1.2-.1.5-.2.9-.2,1.4s0,.9.2,1.4c.1.5.3.9.6,1.2.3.4.6.7,1,.9.4.2.9.3,1.4.3Z"/>
    <path class="st1" d="M150.6,106.4h2.3v2.1h0c0-.3.2-.6.4-.9.2-.3.5-.5.7-.8.3-.2.6-.4,1-.6.4-.1.7-.2,1.1-.2s.5,0,.6,0c.1,0,.2,0,.3,0v2.3c-.2,0-.3,0-.5,0-.2,0-.3,0-.5,0-.4,0-.8,0-1.2.2-.4.2-.7.4-.9.7-.3.3-.5.7-.6,1.2-.2.5-.2,1-.2,1.6v5.2h-2.4v-10.9Z"/>
    <path class="st1" d="M158.5,106.4h2.3v1.5h0c.3-.6.8-1.1,1.4-1.4s1.3-.4,2-.4,1.6.2,2.3.5c.6.3,1.2.7,1.6,1.2s.7,1.1,1,1.9c.2.7.3,1.5.3,2.3s0,1.4-.3,2.1c-.2.7-.5,1.3-.9,1.8s-.9,1-1.5,1.3c-.6.3-1.3.5-2.1.5s-.7,0-1.1,0c-.4,0-.7-.2-1-.3s-.6-.3-.9-.5-.5-.5-.7-.8h0v5.5h-2.4v-15ZM166.9,111.9c0-.5,0-1-.2-1.4-.1-.5-.3-.9-.6-1.2-.3-.4-.6-.6-1-.9-.4-.2-.8-.3-1.3-.3-1,0-1.8.4-2.3,1.1-.5.7-.8,1.6-.8,2.8s0,1.1.2,1.5c.1.5.3.9.6,1.2.3.3.6.6,1,.8.4.2.8.3,1.3.3s1-.1,1.4-.3c.4-.2.7-.5.9-.9.2-.4.4-.8.5-1.2.1-.5.2-.9.2-1.4Z"/>
    <path class="st1" d="M176.8,117.6c-.9,0-1.7-.1-2.3-.4-.7-.3-1.3-.7-1.7-1.2-.5-.5-.8-1.1-1.1-1.8-.2-.7-.4-1.5-.4-2.3s.1-1.6.4-2.3c.2-.7.6-1.3,1.1-1.8.5-.5,1-.9,1.7-1.2.7-.3,1.5-.4,2.3-.4s1.7.1,2.3.4c.7.3,1.3.7,1.7,1.2.5.5.8,1.1,1.1,1.8.2.7.4,1.5.4,2.3s-.1,1.6-.4,2.3c-.2.7-.6,1.3-1.1,1.8-.5.5-1.1.9-1.7,1.2-.7.3-1.5.4-2.3.4ZM176.8,115.7c.5,0,1-.1,1.4-.3.4-.2.7-.5,1-.9s.4-.8.6-1.2c.1-.5.2-.9.2-1.4s0-.9-.2-1.4c-.1-.5-.3-.9-.6-1.2-.3-.4-.6-.7-1-.9-.4-.2-.9-.3-1.4-.3s-1,.1-1.4.3c-.4.2-.7.5-1,.9-.3.4-.4.8-.6,1.2-.1.5-.2.9-.2,1.4s0,.9.2,1.4c.1.5.3.9.6,1.2s.6.7,1,.9c.4.2.9.3,1.4.3Z"/>
    <path class="st1" d="M184.7,106.4h2.3v2.1h0c0-.3.2-.6.4-.9.2-.3.5-.5.7-.8.3-.2.6-.4,1-.6.4-.1.7-.2,1.1-.2s.5,0,.6,0c.1,0,.2,0,.3,0v2.3c-.2,0-.3,0-.5,0-.2,0-.3,0-.5,0-.4,0-.8,0-1.2.2-.4.2-.7.4-.9.7-.3.3-.5.7-.6,1.2-.2.5-.2,1-.2,1.6v5.2h-2.4v-10.9Z"/>
    <path class="st1" d="M201.8,114.9c0,.3,0,.5.1.6s.2.2.5.2h.3c0,0,.2,0,.3,0v1.7c0,0-.2,0-.3,0s-.3,0-.4,0c-.1,0-.3,0-.4,0-.1,0-.3,0-.4,0-.5,0-.9,0-1.2-.3-.3-.2-.5-.5-.6-1-.5.5-1.1.8-1.8,1-.7.2-1.4.3-2,.3s-1,0-1.4-.2c-.5-.1-.8-.3-1.2-.6-.3-.3-.6-.6-.8-1-.2-.4-.3-.9-.3-1.4s.1-1.2.4-1.6c.2-.4.6-.8,1-1,.4-.2.9-.4,1.4-.5.5-.1,1-.2,1.5-.2.4,0,.9-.1,1.2-.2.4,0,.7,0,1-.2.3,0,.5-.2.7-.4s.3-.4.3-.8,0-.6-.2-.8c-.1-.2-.3-.3-.5-.5-.2-.1-.5-.2-.7-.2-.3,0-.5,0-.8,0-.7,0-1.2.1-1.7.4-.4.3-.7.7-.7,1.3h-2.4c0-.7.2-1.3.5-1.8.3-.5.7-.8,1.1-1.1.5-.3,1-.5,1.6-.6.6-.1,1.2-.2,1.8-.2s1.1,0,1.6.2c.5.1,1,.3,1.4.5.4.3.8.6,1,1s.4.9.4,1.5v5.6ZM199.4,111.9c-.4.2-.8.4-1.4.4-.5,0-1.1.1-1.6.2-.3,0-.5.1-.7.2-.2,0-.5.2-.6.3-.2.1-.3.3-.4.5-.1.2-.2.5-.2.8s0,.5.2.7c.2.2.3.3.6.4s.5.2.7.2c.3,0,.5,0,.7,0s.6,0,.9-.1.6-.2.9-.4.5-.4.7-.6c.2-.3.3-.6.3-1v-1.8Z"/>
    <path class="st1" d="M203.7,106.4h1.8v-3.3h2.4v3.3h2.2v1.8h-2.2v5.8c0,.3,0,.5,0,.7,0,.2,0,.3.1.5s.2.2.3.3c.2,0,.4,0,.6,0s.3,0,.5,0c.2,0,.3,0,.5,0v1.9c-.3,0-.5,0-.8,0-.3,0-.5,0-.8,0-.6,0-1.1,0-1.5-.2-.4-.1-.7-.3-.9-.5s-.4-.5-.4-.9c0-.4-.1-.8-.1-1.2v-6.4h-1.8v-1.8Z"/>
    <path class="st1" d="M212.3,102.3h2.4v2.3h-2.4v-2.3ZM212.3,106.4h2.4v10.9h-2.4v-10.9Z"/>
    <path class="st1" d="M222.8,117.6c-.9,0-1.7-.1-2.3-.4-.7-.3-1.3-.7-1.7-1.2-.5-.5-.8-1.1-1.1-1.8-.2-.7-.4-1.5-.4-2.3s.1-1.6.4-2.3c.2-.7.6-1.3,1.1-1.8s1.1-.9,1.7-1.2c.7-.3,1.5-.4,2.3-.4s1.7.1,2.3.4c.7.3,1.3.7,1.7,1.2.5.5.8,1.1,1.1,1.8.2.7.4,1.5.4,2.3s-.1,1.6-.4,2.3c-.2.7-.6,1.3-1.1,1.8-.5.5-1.1.9-1.7,1.2-.7.3-1.5.4-2.3.4ZM222.8,115.7c.5,0,1-.1,1.4-.3.4-.2.7-.5,1-.9s.4-.8.6-1.2c.1-.5.2-.9.2-1.4s0-.9-.2-1.4c-.1-.5-.3-.9-.6-1.2-.3-.4-.6-.7-1-.9-.4-.2-.9-.3-1.4-.3s-1,.1-1.4.3c-.4.2-.7.5-1,.9-.3.4-.4.8-.6,1.2-.1.5-.2.9-.2,1.4s0,.9.2,1.4c.1.5.3.9.6,1.2s.6.7,1,.9c.4.2.9.3,1.4.3Z"/>
    <path class="st1" d="M230.7,106.4h2.3v1.6h0c.4-.6.8-1,1.4-1.4s1.2-.5,2-.5c1.2,0,2.1.3,2.8.9.7.6,1,1.6,1,2.8v7.5h-2.4v-6.9c0-.9-.2-1.5-.5-1.9-.3-.4-.9-.6-1.6-.6s-.8,0-1.1.2c-.3.1-.6.4-.8.6-.2.3-.4.6-.5.9s-.2.7-.2,1.1v6.4h-2.4v-10.9Z"/>
  </g>
</svg>